<svg xmlns="http://www.w3.org/2000/svg" width="949" height="239" viewBox="0 0 949 239">
<defs>
  <style>
    @import url("https://fonts.googleapis.com/css2?family=DM+Mono:wght@400;500&amp;family=Geist+Mono:wght@400;700&amp;display=swap");
    text {
      font-family: "Geist Mono", "DM Mono", "Fira Code", ui-monospace, SFMono-Regular, SF Mono, Menlo, Monaco, Consolas, monospace;
    }
  </style>
</defs>
<style>
  .cell { rx: 3; ry: 3; }
  @keyframes slideIn {
    from { opacity: 0; transform: translateY(-12px); }
    to   { opacity: 1; transform: translateY(0); }
  }
  .anim-cell {
    animation: slideIn 0.4s ease-out forwards;
    opacity: 0;
  }
</style>
<rect width="100%" height="100%" fill="#0d1117" rx="8"/>
<rect x="0" y="0" width="949" height="32" fill="#161b22" rx="8"/>
<circle cx="16" cy="16" r="6" fill="#ff5f56"/>
<circle cx="36" cy="16" r="6" fill="#ffbd2e"/>
<circle cx="56" cy="16" r="6" fill="#27c93f"/>
<text x="474" y="22" fill="#8b949e" font-size="12" text-anchor="middle">mahesh@contributions:~ $ ./contributions.sh</text>
  <rect class="anim-cell cell" x="24" y="56" width="14" height="14" fill="#161b22" style="animation-delay: 0.000s"/>
  <rect class="anim-cell cell" x="41" y="56" width="14" height="14" fill="#161b22" style="animation-delay: 0.015s"/>
  <rect class="anim-cell cell" x="58" y="56" width="14" height="14" fill="#161b22" style="animation-delay: 0.030s"/>
  <rect class="anim-cell cell" x="75" y="56" width="14" height="14" fill="#161b22" style="animation-delay: 0.045s"/>
  <rect class="anim-cell cell" x="92" y="56" width="14" height="14" fill="#161b22" style="animation-delay: 0.060s"/>
  <rect class="anim-cell cell" x="109" y="56" width="14" height="14" fill="#161b22" style="animation-delay: 0.075s"/>
  <rect class="anim-cell cell" x="126" y="56" width="14" height="14" fill="#161b22" style="animation-delay: 0.090s"/>
  <rect class="anim-cell cell" x="143" y="56" width="14" height="14" fill="#161b22" style="animation-delay: 0.105s"/>
  <rect class="anim-cell cell" x="160" y="56" width="14" height="14" fill="#161b22" style="animation-delay: 0.120s"/>
  <rect class="anim-cell cell" x="177" y="56" width="14" height="14" fill="#161b22" style="animation-delay: 0.135s"/>
  <rect class="anim-cell cell" x="194" y="56" width="14" height="14" fill="#161b22" style="animation-delay: 0.150s"/>
  <rect class="anim-cell cell" x="211" y="56" width="14" height="14" fill="#161b22" style="animation-delay: 0.165s"/>
  <rect class="anim-cell cell" x="228" y="56" width="14" height="14" fill="#161b22" style="animation-delay: 0.180s"/>
  <rect class="anim-cell cell" x="245" y="56" width="14" height="14" fill="#161b22" style="animation-delay: 0.195s"/>
  <rect class="anim-cell cell" x="262" y="56" width="14" height="14" fill="#161b22" style="animation-delay: 0.210s"/>
  <rect class="anim-cell cell" x="279" y="56" width="14" height="14" fill="#161b22" style="animation-delay: 0.225s"/>
  <rect class="anim-cell cell" x="296" y="56" width="14" height="14" fill="#0e4429" style="animation-delay: 0.240s"/>
  <rect class="anim-cell cell" x="313" y="56" width="14" height="14" fill="#161b22" style="animation-delay: 0.255s"/>
  <rect class="anim-cell cell" x="330" y="56" width="14" height="14" fill="#161b22" style="animation-delay: 0.270s"/>
  <rect class="anim-cell cell" x="347" y="56" width="14" height="14" fill="#161b22" style="animation-delay: 0.285s"/>
  <rect class="anim-cell cell" x="364" y="56" width="14" height="14" fill="#161b22" style="animation-delay: 0.300s"/>
  <rect class="anim-cell cell" x="381" y="56" width="14" height="14" fill="#161b22" style="animation-delay: 0.315s"/>
  <rect class="anim-cell cell" x="398" y="56" width="14" height="14" fill="#161b22" style="animation-delay: 0.330s"/>
  <rect class="anim-cell cell" x="415" y="56" width="14" height="14" fill="#161b22" style="animation-delay: 0.345s"/>
  <rect class="anim-cell cell" x="432" y="56" width="14" height="14" fill="#161b22" style="animation-delay: 0.360s"/>
  <rect class="anim-cell cell" x="449" y="56" width="14" height="14" fill="#161b22" style="animation-delay: 0.375s"/>
  <rect class="anim-cell cell" x="466" y="56" width="14" height="14" fill="#0e4429" style="animation-delay: 0.390s"/>
  <rect class="anim-cell cell" x="483" y="56" width="14" height="14" fill="#161b22" style="animation-delay: 0.405s"/>
  <rect class="anim-cell cell" x="500" y="56" width="14" height="14" fill="#161b22" style="animation-delay: 0.420s"/>
  <rect class="anim-cell cell" x="517" y="56" width="14" height="14" fill="#161b22" style="animation-delay: 0.435s"/>
  <rect class="anim-cell cell" x="534" y="56" width="14" height="14" fill="#161b22" style="animation-delay: 0.450s"/>
  <rect class="anim-cell cell" x="551" y="56" width="14" height="14" fill="#161b22" style="animation-delay: 0.465s"/>
  <rect class="anim-cell cell" x="568" y="56" width="14" height="14" fill="#161b22" style="animation-delay: 0.480s"/>
  <rect class="anim-cell cell" x="585" y="56" width="14" height="14" fill="#161b22" style="animation-delay: 0.495s"/>
  <rect class="anim-cell cell" x="602" y="56" width="14" height="14" fill="#161b22" style="animation-delay: 0.510s"/>
  <rect class="anim-cell cell" x="619" y="56" width="14" height="14" fill="#161b22" style="animation-delay: 0.525s"/>
  <rect class="anim-cell cell" x="636" y="56" width="14" height="14" fill="#161b22" style="animation-delay: 0.540s"/>
  <rect class="anim-cell cell" x="653" y="56" width="14" height="14" fill="#161b22" style="animation-delay: 0.555s"/>
  <rect class="anim-cell cell" x="670" y="56" width="14" height="14" fill="#161b22" style="animation-delay: 0.570s"/>
  <rect class="anim-cell cell" x="687" y="56" width="14" height="14" fill="#161b22" style="animation-delay: 0.585s"/>
  <rect class="anim-cell cell" x="704" y="56" width="14" height="14" fill="#161b22" style="animation-delay: 0.600s"/>
  <rect class="anim-cell cell" x="721" y="56" width="14" height="14" fill="#161b22" style="animation-delay: 0.615s"/>
  <rect class="anim-cell cell" x="738" y="56" width="14" height="14" fill="#161b22" style="animation-delay: 0.630s"/>
  <rect class="anim-cell cell" x="755" y="56" width="14" height="14" fill="#161b22" style="animation-delay: 0.645s"/>
  <rect class="anim-cell cell" x="772" y="56" width="14" height="14" fill="#161b22" style="animation-delay: 0.660s"/>
  <rect class="anim-cell cell" x="789" y="56" width="14" height="14" fill="#161b22" style="animation-delay: 0.675s"/>
  <rect class="anim-cell cell" x="806" y="56" width="14" height="14" fill="#161b22" style="animation-delay: 0.690s"/>
  <rect class="anim-cell cell" x="823" y="56" width="14" height="14" fill="#161b22" style="animation-delay: 0.705s"/>
  <rect class="anim-cell cell" x="840" y="56" width="14" height="14" fill="#161b22" style="animation-delay: 0.720s"/>
  <rect class="anim-cell cell" x="857" y="56" width="14" height="14" fill="#161b22" style="animation-delay: 0.735s"/>
  <rect class="anim-cell cell" x="874" y="56" width="14" height="14" fill="#161b22" style="animation-delay: 0.750s"/>
  <rect class="anim-cell cell" x="891" y="56" width="14" height="14" fill="#006d32" style="animation-delay: 0.765s"/>
  <rect class="anim-cell cell" x="908" y="56" width="14" height="14" fill="#161b22" style="animation-delay: 0.780s"/>
  <rect class="anim-cell cell" x="24" y="73" width="14" height="14" fill="#161b22" style="animation-delay: 0.015s"/>
  <rect class="anim-cell cell" x="41" y="73" width="14" height="14" fill="#161b22" style="animation-delay: 0.030s"/>
  <rect class="anim-cell cell" x="58" y="73" width="14" height="14" fill="#161b22" style="animation-delay: 0.045s"/>
  <rect class="anim-cell cell" x="75" y="73" width="14" height="14" fill="#161b22" style="animation-delay: 0.060s"/>
  <rect class="anim-cell cell" x="92" y="73" width="14" height="14" fill="#161b22" style="animation-delay: 0.075s"/>
  <rect class="anim-cell cell" x="109" y="73" width="14" height="14" fill="#161b22" style="animation-delay: 0.090s"/>
  <rect class="anim-cell cell" x="126" y="73" width="14" height="14" fill="#161b22" style="animation-delay: 0.105s"/>
  <rect class="anim-cell cell" x="143" y="73" width="14" height="14" fill="#161b22" style="animation-delay: 0.120s"/>
  <rect class="anim-cell cell" x="160" y="73" width="14" height="14" fill="#161b22" style="animation-delay: 0.135s"/>
  <rect class="anim-cell cell" x="177" y="73" width="14" height="14" fill="#161b22" style="animation-delay: 0.150s"/>
  <rect class="anim-cell cell" x="194" y="73" width="14" height="14" fill="#161b22" style="animation-delay: 0.165s"/>
  <rect class="anim-cell cell" x="211" y="73" width="14" height="14" fill="#161b22" style="animation-delay: 0.180s"/>
  <rect class="anim-cell cell" x="228" y="73" width="14" height="14" fill="#161b22" style="animation-delay: 0.195s"/>
  <rect class="anim-cell cell" x="245" y="73" width="14" height="14" fill="#161b22" style="animation-delay: 0.210s"/>
  <rect class="anim-cell cell" x="262" y="73" width="14" height="14" fill="#161b22" style="animation-delay: 0.225s"/>
  <rect class="anim-cell cell" x="279" y="73" width="14" height="14" fill="#161b22" style="animation-delay: 0.240s"/>
  <rect class="anim-cell cell" x="296" y="73" width="14" height="14" fill="#161b22" style="animation-delay: 0.255s"/>
  <rect class="anim-cell cell" x="313" y="73" width="14" height="14" fill="#161b22" style="animation-delay: 0.270s"/>
  <rect class="anim-cell cell" x="330" y="73" width="14" height="14" fill="#006d32" style="animation-delay: 0.285s"/>
  <rect class="anim-cell cell" x="347" y="73" width="14" height="14" fill="#161b22" style="animation-delay: 0.300s"/>
  <rect class="anim-cell cell" x="364" y="73" width="14" height="14" fill="#161b22" style="animation-delay: 0.315s"/>
  <rect class="anim-cell cell" x="381" y="73" width="14" height="14" fill="#161b22" style="animation-delay: 0.330s"/>
  <rect class="anim-cell cell" x="398" y="73" width="14" height="14" fill="#161b22" style="animation-delay: 0.345s"/>
  <rect class="anim-cell cell" x="415" y="73" width="14" height="14" fill="#161b22" style="animation-delay: 0.360s"/>
  <rect class="anim-cell cell" x="432" y="73" width="14" height="14" fill="#161b22" style="animation-delay: 0.375s"/>
  <rect class="anim-cell cell" x="449" y="73" width="14" height="14" fill="#161b22" style="animation-delay: 0.390s"/>
  <rect class="anim-cell cell" x="466" y="73" width="14" height="14" fill="#161b22" style="animation-delay: 0.405s"/>
  <rect class="anim-cell cell" x="483" y="73" width="14" height="14" fill="#161b22" style="animation-delay: 0.420s"/>
  <rect class="anim-cell cell" x="500" y="73" width="14" height="14" fill="#0e4429" style="animation-delay: 0.435s"/>
  <rect class="anim-cell cell" x="517" y="73" width="14" height="14" fill="#161b22" style="animation-delay: 0.450s"/>
  <rect class="anim-cell cell" x="534" y="73" width="14" height="14" fill="#161b22" style="animation-delay: 0.465s"/>
  <rect class="anim-cell cell" x="551" y="73" width="14" height="14" fill="#0e4429" style="animation-delay: 0.480s"/>
  <rect class="anim-cell cell" x="568" y="73" width="14" height="14" fill="#161b22" style="animation-delay: 0.495s"/>
  <rect class="anim-cell cell" x="585" y="73" width="14" height="14" fill="#161b22" style="animation-delay: 0.510s"/>
  <rect class="anim-cell cell" x="602" y="73" width="14" height="14" fill="#161b22" style="animation-delay: 0.525s"/>
  <rect class="anim-cell cell" x="619" y="73" width="14" height="14" fill="#161b22" style="animation-delay: 0.540s"/>
  <rect class="anim-cell cell" x="636" y="73" width="14" height="14" fill="#161b22" style="animation-delay: 0.555s"/>
  <rect class="anim-cell cell" x="653" y="73" width="14" height="14" fill="#161b22" style="animation-delay: 0.570s"/>
  <rect class="anim-cell cell" x="670" y="73" width="14" height="14" fill="#161b22" style="animation-delay: 0.585s"/>
  <rect class="anim-cell cell" x="687" y="73" width="14" height="14" fill="#161b22" style="animation-delay: 0.600s"/>
  <rect class="anim-cell cell" x="704" y="73" width="14" height="14" fill="#161b22" style="animation-delay: 0.615s"/>
  <rect class="anim-cell cell" x="721" y="73" width="14" height="14" fill="#161b22" style="animation-delay: 0.630s"/>
  <rect class="anim-cell cell" x="738" y="73" width="14" height="14" fill="#161b22" style="animation-delay: 0.645s"/>
  <rect class="anim-cell cell" x="755" y="73" width="14" height="14" fill="#161b22" style="animation-delay: 0.660s"/>
  <rect class="anim-cell cell" x="772" y="73" width="14" height="14" fill="#161b22" style="animation-delay: 0.675s"/>
  <rect class="anim-cell cell" x="789" y="73" width="14" height="14" fill="#161b22" style="animation-delay: 0.690s"/>
  <rect class="anim-cell cell" x="806" y="73" width="14" height="14" fill="#161b22" style="animation-delay: 0.705s"/>
  <rect class="anim-cell cell" x="823" y="73" width="14" height="14" fill="#161b22" style="animation-delay: 0.720s"/>
  <rect class="anim-cell cell" x="840" y="73" width="14" height="14" fill="#161b22" style="animation-delay: 0.735s"/>
  <rect class="anim-cell cell" x="857" y="73" width="14" height="14" fill="#161b22" style="animation-delay: 0.750s"/>
  <rect class="anim-cell cell" x="874" y="73" width="14" height="14" fill="#161b22" style="animation-delay: 0.765s"/>
  <rect class="anim-cell cell" x="891" y="73" width="14" height="14" fill="#0e4429" style="animation-delay: 0.780s"/>
  <rect class="anim-cell cell" x="908" y="73" width="14" height="14" fill="#0e4429" style="animation-delay: 0.795s"/>
  <rect class="anim-cell cell" x="24" y="90" width="14" height="14" fill="#161b22" style="animation-delay: 0.030s"/>
  <rect class="anim-cell cell" x="41" y="90" width="14" height="14" fill="#161b22" style="animation-delay: 0.045s"/>
  <rect class="anim-cell cell" x="58" y="90" width="14" height="14" fill="#161b22" style="animation-delay: 0.060s"/>
  <rect class="anim-cell cell" x="75" y="90" width="14" height="14" fill="#161b22" style="animation-delay: 0.075s"/>
  <rect class="anim-cell cell" x="92" y="90" width="14" height="14" fill="#161b22" style="animation-delay: 0.090s"/>
  <rect class="anim-cell cell" x="109" y="90" width="14" height="14" fill="#161b22" style="animation-delay: 0.105s"/>
  <rect class="anim-cell cell" x="126" y="90" width="14" height="14" fill="#161b22" style="animation-delay: 0.120s"/>
  <rect class="anim-cell cell" x="143" y="90" width="14" height="14" fill="#161b22" style="animation-delay: 0.135s"/>
  <rect class="anim-cell cell" x="160" y="90" width="14" height="14" fill="#161b22" style="animation-delay: 0.150s"/>
  <rect class="anim-cell cell" x="177" y="90" width="14" height="14" fill="#161b22" style="animation-delay: 0.165s"/>
  <rect class="anim-cell cell" x="194" y="90" width="14" height="14" fill="#161b22" style="animation-delay: 0.180s"/>
  <rect class="anim-cell cell" x="211" y="90" width="14" height="14" fill="#161b22" style="animation-delay: 0.195s"/>
  <rect class="anim-cell cell" x="228" y="90" width="14" height="14" fill="#161b22" style="animation-delay: 0.210s"/>
  <rect class="anim-cell cell" x="245" y="90" width="14" height="14" fill="#161b22" style="animation-delay: 0.225s"/>
  <rect class="anim-cell cell" x="262" y="90" width="14" height="14" fill="#161b22" style="animation-delay: 0.240s"/>
  <rect class="anim-cell cell" x="279" y="90" width="14" height="14" fill="#161b22" style="animation-delay: 0.255s"/>
  <rect class="anim-cell cell" x="296" y="90" width="14" height="14" fill="#161b22" style="animation-delay: 0.270s"/>
  <rect class="anim-cell cell" x="313" y="90" width="14" height="14" fill="#161b22" style="animation-delay: 0.285s"/>
  <rect class="anim-cell cell" x="330" y="90" width="14" height="14" fill="#161b22" style="animation-delay: 0.300s"/>
  <rect class="anim-cell cell" x="347" y="90" width="14" height="14" fill="#161b22" style="animation-delay: 0.315s"/>
  <rect class="anim-cell cell" x="364" y="90" width="14" height="14" fill="#161b22" style="animation-delay: 0.330s"/>
  <rect class="anim-cell cell" x="381" y="90" width="14" height="14" fill="#161b22" style="animation-delay: 0.345s"/>
  <rect class="anim-cell cell" x="398" y="90" width="14" height="14" fill="#161b22" style="animation-delay: 0.360s"/>
  <rect class="anim-cell cell" x="415" y="90" width="14" height="14" fill="#161b22" style="animation-delay: 0.375s"/>
  <rect class="anim-cell cell" x="432" y="90" width="14" height="14" fill="#161b22" style="animation-delay: 0.390s"/>
  <rect class="anim-cell cell" x="449" y="90" width="14" height="14" fill="#161b22" style="animation-delay: 0.405s"/>
  <rect class="anim-cell cell" x="466" y="90" width="14" height="14" fill="#161b22" style="animation-delay: 0.420s"/>
  <rect class="anim-cell cell" x="483" y="90" width="14" height="14" fill="#161b22" style="animation-delay: 0.435s"/>
  <rect class="anim-cell cell" x="500" y="90" width="14" height="14" fill="#161b22" style="animation-delay: 0.450s"/>
  <rect class="anim-cell cell" x="517" y="90" width="14" height="14" fill="#161b22" style="animation-delay: 0.465s"/>
  <rect class="anim-cell cell" x="534" y="90" width="14" height="14" fill="#161b22" style="animation-delay: 0.480s"/>
  <rect class="anim-cell cell" x="551" y="90" width="14" height="14" fill="#161b22" style="animation-delay: 0.495s"/>
  <rect class="anim-cell cell" x="568" y="90" width="14" height="14" fill="#161b22" style="animation-delay: 0.510s"/>
  <rect class="anim-cell cell" x="585" y="90" width="14" height="14" fill="#161b22" style="animation-delay: 0.525s"/>
  <rect class="anim-cell cell" x="602" y="90" width="14" height="14" fill="#161b22" style="animation-delay: 0.540s"/>
  <rect class="anim-cell cell" x="619" y="90" width="14" height="14" fill="#161b22" style="animation-delay: 0.555s"/>
  <rect class="anim-cell cell" x="636" y="90" width="14" height="14" fill="#161b22" style="animation-delay: 0.570s"/>
  <rect class="anim-cell cell" x="653" y="90" width="14" height="14" fill="#161b22" style="animation-delay: 0.585s"/>
  <rect class="anim-cell cell" x="670" y="90" width="14" height="14" fill="#161b22" style="animation-delay: 0.600s"/>
  <rect class="anim-cell cell" x="687" y="90" width="14" height="14" fill="#161b22" style="animation-delay: 0.615s"/>
  <rect class="anim-cell cell" x="704" y="90" width="14" height="14" fill="#161b22" style="animation-delay: 0.630s"/>
  <rect class="anim-cell cell" x="721" y="90" width="14" height="14" fill="#161b22" style="animation-delay: 0.645s"/>
  <rect class="anim-cell cell" x="738" y="90" width="14" height="14" fill="#161b22" style="animation-delay: 0.660s"/>
  <rect class="anim-cell cell" x="755" y="90" width="14" height="14" fill="#161b22" style="animation-delay: 0.675s"/>
  <rect class="anim-cell cell" x="772" y="90" width="14" height="14" fill="#161b22" style="animation-delay: 0.690s"/>
  <rect class="anim-cell cell" x="789" y="90" width="14" height="14" fill="#161b22" style="animation-delay: 0.705s"/>
  <rect class="anim-cell cell" x="806" y="90" width="14" height="14" fill="#161b22" style="animation-delay: 0.720s"/>
  <rect class="anim-cell cell" x="823" y="90" width="14" height="14" fill="#161b22" style="animation-delay: 0.735s"/>
  <rect class="anim-cell cell" x="840" y="90" width="14" height="14" fill="#161b22" style="animation-delay: 0.750s"/>
  <rect class="anim-cell cell" x="857" y="90" width="14" height="14" fill="#161b22" style="animation-delay: 0.765s"/>
  <rect class="anim-cell cell" x="874" y="90" width="14" height="14" fill="#161b22" style="animation-delay: 0.780s"/>
  <rect class="anim-cell cell" x="891" y="90" width="14" height="14" fill="#0e4429" style="animation-delay: 0.795s"/>
  <rect class="anim-cell cell" x="908" y="90" width="14" height="14" fill="#161b22" style="animation-delay: 0.810s"/>
  <rect class="anim-cell cell" x="24" y="107" width="14" height="14" fill="#161b22" style="animation-delay: 0.045s"/>
  <rect class="anim-cell cell" x="41" y="107" width="14" height="14" fill="#161b22" style="animation-delay: 0.060s"/>
  <rect class="anim-cell cell" x="58" y="107" width="14" height="14" fill="#161b22" style="animation-delay: 0.075s"/>
  <rect class="anim-cell cell" x="75" y="107" width="14" height="14" fill="#161b22" style="animation-delay: 0.090s"/>
  <rect class="anim-cell cell" x="92" y="107" width="14" height="14" fill="#161b22" style="animation-delay: 0.105s"/>
  <rect class="anim-cell cell" x="109" y="107" width="14" height="14" fill="#161b22" style="animation-delay: 0.120s"/>
  <rect class="anim-cell cell" x="126" y="107" width="14" height="14" fill="#161b22" style="animation-delay: 0.135s"/>
  <rect class="anim-cell cell" x="143" y="107" width="14" height="14" fill="#161b22" style="animation-delay: 0.150s"/>
  <rect class="anim-cell cell" x="160" y="107" width="14" height="14" fill="#161b22" style="animation-delay: 0.165s"/>
  <rect class="anim-cell cell" x="177" y="107" width="14" height="14" fill="#161b22" style="animation-delay: 0.180s"/>
  <rect class="anim-cell cell" x="194" y="107" width="14" height="14" fill="#161b22" style="animation-delay: 0.195s"/>
  <rect class="anim-cell cell" x="211" y="107" width="14" height="14" fill="#161b22" style="animation-delay: 0.210s"/>
  <rect class="anim-cell cell" x="228" y="107" width="14" height="14" fill="#161b22" style="animation-delay: 0.225s"/>
  <rect class="anim-cell cell" x="245" y="107" width="14" height="14" fill="#0e4429" style="animation-delay: 0.240s"/>
  <rect class="anim-cell cell" x="262" y="107" width="14" height="14" fill="#161b22" style="animation-delay: 0.255s"/>
  <rect class="anim-cell cell" x="279" y="107" width="14" height="14" fill="#161b22" style="animation-delay: 0.270s"/>
  <rect class="anim-cell cell" x="296" y="107" width="14" height="14" fill="#161b22" style="animation-delay: 0.285s"/>
  <rect class="anim-cell cell" x="313" y="107" width="14" height="14" fill="#161b22" style="animation-delay: 0.300s"/>
  <rect class="anim-cell cell" x="330" y="107" width="14" height="14" fill="#161b22" style="animation-delay: 0.315s"/>
  <rect class="anim-cell cell" x="347" y="107" width="14" height="14" fill="#161b22" style="animation-delay: 0.330s"/>
  <rect class="anim-cell cell" x="364" y="107" width="14" height="14" fill="#161b22" style="animation-delay: 0.345s"/>
  <rect class="anim-cell cell" x="381" y="107" width="14" height="14" fill="#161b22" style="animation-delay: 0.360s"/>
  <rect class="anim-cell cell" x="398" y="107" width="14" height="14" fill="#161b22" style="animation-delay: 0.375s"/>
  <rect class="anim-cell cell" x="415" y="107" width="14" height="14" fill="#161b22" style="animation-delay: 0.390s"/>
  <rect class="anim-cell cell" x="432" y="107" width="14" height="14" fill="#161b22" style="animation-delay: 0.405s"/>
  <rect class="anim-cell cell" x="449" y="107" width="14" height="14" fill="#161b22" style="animation-delay: 0.420s"/>
  <rect class="anim-cell cell" x="466" y="107" width="14" height="14" fill="#161b22" style="animation-delay: 0.435s"/>
  <rect class="anim-cell cell" x="483" y="107" width="14" height="14" fill="#161b22" style="animation-delay: 0.450s"/>
  <rect class="anim-cell cell" x="500" y="107" width="14" height="14" fill="#161b22" style="animation-delay: 0.465s"/>
  <rect class="anim-cell cell" x="517" y="107" width="14" height="14" fill="#161b22" style="animation-delay: 0.480s"/>
  <rect class="anim-cell cell" x="534" y="107" width="14" height="14" fill="#161b22" style="animation-delay: 0.495s"/>
  <rect class="anim-cell cell" x="551" y="107" width="14" height="14" fill="#161b22" style="animation-delay: 0.510s"/>
  <rect class="anim-cell cell" x="568" y="107" width="14" height="14" fill="#161b22" style="animation-delay: 0.525s"/>
  <rect class="anim-cell cell" x="585" y="107" width="14" height="14" fill="#161b22" style="animation-delay: 0.540s"/>
  <rect class="anim-cell cell" x="602" y="107" width="14" height="14" fill="#161b22" style="animation-delay: 0.555s"/>
  <rect class="anim-cell cell" x="619" y="107" width="14" height="14" fill="#161b22" style="animation-delay: 0.570s"/>
  <rect class="anim-cell cell" x="636" y="107" width="14" height="14" fill="#161b22" style="animation-delay: 0.585s"/>
  <rect class="anim-cell cell" x="653" y="107" width="14" height="14" fill="#161b22" style="animation-delay: 0.600s"/>
  <rect class="anim-cell cell" x="670" y="107" width="14" height="14" fill="#161b22" style="animation-delay: 0.615s"/>
  <rect class="anim-cell cell" x="687" y="107" width="14" height="14" fill="#161b22" style="animation-delay: 0.630s"/>
  <rect class="anim-cell cell" x="704" y="107" width="14" height="14" fill="#161b22" style="animation-delay: 0.645s"/>
  <rect class="anim-cell cell" x="721" y="107" width="14" height="14" fill="#161b22" style="animation-delay: 0.660s"/>
  <rect class="anim-cell cell" x="738" y="107" width="14" height="14" fill="#161b22" style="animation-delay: 0.675s"/>
  <rect class="anim-cell cell" x="755" y="107" width="14" height="14" fill="#161b22" style="animation-delay: 0.690s"/>
  <rect class="anim-cell cell" x="772" y="107" width="14" height="14" fill="#161b22" style="animation-delay: 0.705s"/>
  <rect class="anim-cell cell" x="789" y="107" width="14" height="14" fill="#161b22" style="animation-delay: 0.720s"/>
  <rect class="anim-cell cell" x="806" y="107" width="14" height="14" fill="#161b22" style="animation-delay: 0.735s"/>
  <rect class="anim-cell cell" x="823" y="107" width="14" height="14" fill="#161b22" style="animation-delay: 0.750s"/>
  <rect class="anim-cell cell" x="840" y="107" width="14" height="14" fill="#161b22" style="animation-delay: 0.765s"/>
  <rect class="anim-cell cell" x="857" y="107" width="14" height="14" fill="#161b22" style="animation-delay: 0.780s"/>
  <rect class="anim-cell cell" x="874" y="107" width="14" height="14" fill="#161b22" style="animation-delay: 0.795s"/>
  <rect class="anim-cell cell" x="891" y="107" width="14" height="14" fill="#39d353" style="animation-delay: 0.810s"/>
  <rect class="anim-cell cell" x="908" y="107" width="14" height="14" fill="#161b22" style="animation-delay: 0.825s"/>
  <rect class="anim-cell cell" x="24" y="124" width="14" height="14" fill="#161b22" style="animation-delay: 0.060s"/>
  <rect class="anim-cell cell" x="41" y="124" width="14" height="14" fill="#161b22" style="animation-delay: 0.075s"/>
  <rect class="anim-cell cell" x="58" y="124" width="14" height="14" fill="#161b22" style="animation-delay: 0.090s"/>
  <rect class="anim-cell cell" x="75" y="124" width="14" height="14" fill="#161b22" style="animation-delay: 0.105s"/>
  <rect class="anim-cell cell" x="92" y="124" width="14" height="14" fill="#161b22" style="animation-delay: 0.120s"/>
  <rect class="anim-cell cell" x="109" y="124" width="14" height="14" fill="#161b22" style="animation-delay: 0.135s"/>
  <rect class="anim-cell cell" x="126" y="124" width="14" height="14" fill="#161b22" style="animation-delay: 0.150s"/>
  <rect class="anim-cell cell" x="143" y="124" width="14" height="14" fill="#161b22" style="animation-delay: 0.165s"/>
  <rect class="anim-cell cell" x="160" y="124" width="14" height="14" fill="#161b22" style="animation-delay: 0.180s"/>
  <rect class="anim-cell cell" x="177" y="124" width="14" height="14" fill="#161b22" style="animation-delay: 0.195s"/>
  <rect class="anim-cell cell" x="194" y="124" width="14" height="14" fill="#0e4429" style="animation-delay: 0.210s"/>
  <rect class="anim-cell cell" x="211" y="124" width="14" height="14" fill="#161b22" style="animation-delay: 0.225s"/>
  <rect class="anim-cell cell" x="228" y="124" width="14" height="14" fill="#161b22" style="animation-delay: 0.240s"/>
  <rect class="anim-cell cell" x="245" y="124" width="14" height="14" fill="#161b22" style="animation-delay: 0.255s"/>
  <rect class="anim-cell cell" x="262" y="124" width="14" height="14" fill="#161b22" style="animation-delay: 0.270s"/>
  <rect class="anim-cell cell" x="279" y="124" width="14" height="14" fill="#161b22" style="animation-delay: 0.285s"/>
  <rect class="anim-cell cell" x="296" y="124" width="14" height="14" fill="#161b22" style="animation-delay: 0.300s"/>
  <rect class="anim-cell cell" x="313" y="124" width="14" height="14" fill="#161b22" style="animation-delay: 0.315s"/>
  <rect class="anim-cell cell" x="330" y="124" width="14" height="14" fill="#161b22" style="animation-delay: 0.330s"/>
  <rect class="anim-cell cell" x="347" y="124" width="14" height="14" fill="#161b22" style="animation-delay: 0.345s"/>
  <rect class="anim-cell cell" x="364" y="124" width="14" height="14" fill="#161b22" style="animation-delay: 0.360s"/>
  <rect class="anim-cell cell" x="381" y="124" width="14" height="14" fill="#161b22" style="animation-delay: 0.375s"/>
  <rect class="anim-cell cell" x="398" y="124" width="14" height="14" fill="#161b22" style="animation-delay: 0.390s"/>
  <rect class="anim-cell cell" x="415" y="124" width="14" height="14" fill="#161b22" style="animation-delay: 0.405s"/>
  <rect class="anim-cell cell" x="432" y="124" width="14" height="14" fill="#161b22" style="animation-delay: 0.420s"/>
  <rect class="anim-cell cell" x="449" y="124" width="14" height="14" fill="#0e4429" style="animation-delay: 0.435s"/>
  <rect class="anim-cell cell" x="466" y="124" width="14" height="14" fill="#0e4429" style="animation-delay: 0.450s"/>
  <rect class="anim-cell cell" x="483" y="124" width="14" height="14" fill="#161b22" style="animation-delay: 0.465s"/>
  <rect class="anim-cell cell" x="500" y="124" width="14" height="14" fill="#161b22" style="animation-delay: 0.480s"/>
  <rect class="anim-cell cell" x="517" y="124" width="14" height="14" fill="#161b22" style="animation-delay: 0.495s"/>
  <rect class="anim-cell cell" x="534" y="124" width="14" height="14" fill="#161b22" style="animation-delay: 0.510s"/>
  <rect class="anim-cell cell" x="551" y="124" width="14" height="14" fill="#161b22" style="animation-delay: 0.525s"/>
  <rect class="anim-cell cell" x="568" y="124" width="14" height="14" fill="#161b22" style="animation-delay: 0.540s"/>
  <rect class="anim-cell cell" x="585" y="124" width="14" height="14" fill="#161b22" style="animation-delay: 0.555s"/>
  <rect class="anim-cell cell" x="602" y="124" width="14" height="14" fill="#161b22" style="animation-delay: 0.570s"/>
  <rect class="anim-cell cell" x="619" y="124" width="14" height="14" fill="#161b22" style="animation-delay: 0.585s"/>
  <rect class="anim-cell cell" x="636" y="124" width="14" height="14" fill="#0e4429" style="animation-delay: 0.600s"/>
  <rect class="anim-cell cell" x="653" y="124" width="14" height="14" fill="#161b22" style="animation-delay: 0.615s"/>
  <rect class="anim-cell cell" x="670" y="124" width="14" height="14" fill="#161b22" style="animation-delay: 0.630s"/>
  <rect class="anim-cell cell" x="687" y="124" width="14" height="14" fill="#161b22" style="animation-delay: 0.645s"/>
  <rect class="anim-cell cell" x="704" y="124" width="14" height="14" fill="#161b22" style="animation-delay: 0.660s"/>
  <rect class="anim-cell cell" x="721" y="124" width="14" height="14" fill="#161b22" style="animation-delay: 0.675s"/>
  <rect class="anim-cell cell" x="738" y="124" width="14" height="14" fill="#161b22" style="animation-delay: 0.690s"/>
  <rect class="anim-cell cell" x="755" y="124" width="14" height="14" fill="#161b22" style="animation-delay: 0.705s"/>
  <rect class="anim-cell cell" x="772" y="124" width="14" height="14" fill="#161b22" style="animation-delay: 0.720s"/>
  <rect class="anim-cell cell" x="789" y="124" width="14" height="14" fill="#161b22" style="animation-delay: 0.735s"/>
  <rect class="anim-cell cell" x="806" y="124" width="14" height="14" fill="#161b22" style="animation-delay: 0.750s"/>
  <rect class="anim-cell cell" x="823" y="124" width="14" height="14" fill="#161b22" style="animation-delay: 0.765s"/>
  <rect class="anim-cell cell" x="840" y="124" width="14" height="14" fill="#161b22" style="animation-delay: 0.780s"/>
  <rect class="anim-cell cell" x="857" y="124" width="14" height="14" fill="#161b22" style="animation-delay: 0.795s"/>
  <rect class="anim-cell cell" x="874" y="124" width="14" height="14" fill="#161b22" style="animation-delay: 0.810s"/>
  <rect class="anim-cell cell" x="891" y="124" width="14" height="14" fill="#26a641" style="animation-delay: 0.825s"/>
  <rect class="anim-cell cell" x="908" y="124" width="14" height="14" fill="#0e4429" style="animation-delay: 0.840s"/>
  <rect class="anim-cell cell" x="24" y="141" width="14" height="14" fill="#161b22" style="animation-delay: 0.075s"/>
  <rect class="anim-cell cell" x="41" y="141" width="14" height="14" fill="#161b22" style="animation-delay: 0.090s"/>
  <rect class="anim-cell cell" x="58" y="141" width="14" height="14" fill="#161b22" style="animation-delay: 0.105s"/>
  <rect class="anim-cell cell" x="75" y="141" width="14" height="14" fill="#161b22" style="animation-delay: 0.120s"/>
  <rect class="anim-cell cell" x="92" y="141" width="14" height="14" fill="#161b22" style="animation-delay: 0.135s"/>
  <rect class="anim-cell cell" x="109" y="141" width="14" height="14" fill="#161b22" style="animation-delay: 0.150s"/>
  <rect class="anim-cell cell" x="126" y="141" width="14" height="14" fill="#161b22" style="animation-delay: 0.165s"/>
  <rect class="anim-cell cell" x="143" y="141" width="14" height="14" fill="#161b22" style="animation-delay: 0.180s"/>
  <rect class="anim-cell cell" x="160" y="141" width="14" height="14" fill="#161b22" style="animation-delay: 0.195s"/>
  <rect class="anim-cell cell" x="177" y="141" width="14" height="14" fill="#161b22" style="animation-delay: 0.210s"/>
  <rect class="anim-cell cell" x="194" y="141" width="14" height="14" fill="#161b22" style="animation-delay: 0.225s"/>
  <rect class="anim-cell cell" x="211" y="141" width="14" height="14" fill="#161b22" style="animation-delay: 0.240s"/>
  <rect class="anim-cell cell" x="228" y="141" width="14" height="14" fill="#161b22" style="animation-delay: 0.255s"/>
  <rect class="anim-cell cell" x="245" y="141" width="14" height="14" fill="#161b22" style="animation-delay: 0.270s"/>
  <rect class="anim-cell cell" x="262" y="141" width="14" height="14" fill="#161b22" style="animation-delay: 0.285s"/>
  <rect class="anim-cell cell" x="279" y="141" width="14" height="14" fill="#0e4429" style="animation-delay: 0.300s"/>
  <rect class="anim-cell cell" x="296" y="141" width="14" height="14" fill="#161b22" style="animation-delay: 0.315s"/>
  <rect class="anim-cell cell" x="313" y="141" width="14" height="14" fill="#161b22" style="animation-delay: 0.330s"/>
  <rect class="anim-cell cell" x="330" y="141" width="14" height="14" fill="#161b22" style="animation-delay: 0.345s"/>
  <rect class="anim-cell cell" x="347" y="141" width="14" height="14" fill="#161b22" style="animation-delay: 0.360s"/>
  <rect class="anim-cell cell" x="364" y="141" width="14" height="14" fill="#161b22" style="animation-delay: 0.375s"/>
  <rect class="anim-cell cell" x="381" y="141" width="14" height="14" fill="#161b22" style="animation-delay: 0.390s"/>
  <rect class="anim-cell cell" x="398" y="141" width="14" height="14" fill="#161b22" style="animation-delay: 0.405s"/>
  <rect class="anim-cell cell" x="415" y="141" width="14" height="14" fill="#161b22" style="animation-delay: 0.420s"/>
  <rect class="anim-cell cell" x="432" y="141" width="14" height="14" fill="#161b22" style="animation-delay: 0.435s"/>
  <rect class="anim-cell cell" x="449" y="141" width="14" height="14" fill="#161b22" style="animation-delay: 0.450s"/>
  <rect class="anim-cell cell" x="466" y="141" width="14" height="14" fill="#161b22" style="animation-delay: 0.465s"/>
  <rect class="anim-cell cell" x="483" y="141" width="14" height="14" fill="#161b22" style="animation-delay: 0.480s"/>
  <rect class="anim-cell cell" x="500" y="141" width="14" height="14" fill="#161b22" style="animation-delay: 0.495s"/>
  <rect class="anim-cell cell" x="517" y="141" width="14" height="14" fill="#161b22" style="animation-delay: 0.510s"/>
  <rect class="anim-cell cell" x="534" y="141" width="14" height="14" fill="#161b22" style="animation-delay: 0.525s"/>
  <rect class="anim-cell cell" x="551" y="141" width="14" height="14" fill="#161b22" style="animation-delay: 0.540s"/>
  <rect class="anim-cell cell" x="568" y="141" width="14" height="14" fill="#161b22" style="animation-delay: 0.555s"/>
  <rect class="anim-cell cell" x="585" y="141" width="14" height="14" fill="#161b22" style="animation-delay: 0.570s"/>
  <rect class="anim-cell cell" x="602" y="141" width="14" height="14" fill="#161b22" style="animation-delay: 0.585s"/>
  <rect class="anim-cell cell" x="619" y="141" width="14" height="14" fill="#161b22" style="animation-delay: 0.600s"/>
  <rect class="anim-cell cell" x="636" y="141" width="14" height="14" fill="#161b22" style="animation-delay: 0.615s"/>
  <rect class="anim-cell cell" x="653" y="141" width="14" height="14" fill="#161b22" style="animation-delay: 0.630s"/>
  <rect class="anim-cell cell" x="670" y="141" width="14" height="14" fill="#161b22" style="animation-delay: 0.645s"/>
  <rect class="anim-cell cell" x="687" y="141" width="14" height="14" fill="#161b22" style="animation-delay: 0.660s"/>
  <rect class="anim-cell cell" x="704" y="141" width="14" height="14" fill="#161b22" style="animation-delay: 0.675s"/>
  <rect class="anim-cell cell" x="721" y="141" width="14" height="14" fill="#161b22" style="animation-delay: 0.690s"/>
  <rect class="anim-cell cell" x="738" y="141" width="14" height="14" fill="#161b22" style="animation-delay: 0.705s"/>
  <rect class="anim-cell cell" x="755" y="141" width="14" height="14" fill="#161b22" style="animation-delay: 0.720s"/>
  <rect class="anim-cell cell" x="772" y="141" width="14" height="14" fill="#161b22" style="animation-delay: 0.735s"/>
  <rect class="anim-cell cell" x="789" y="141" width="14" height="14" fill="#161b22" style="animation-delay: 0.750s"/>
  <rect class="anim-cell cell" x="806" y="141" width="14" height="14" fill="#161b22" style="animation-delay: 0.765s"/>
  <rect class="anim-cell cell" x="823" y="141" width="14" height="14" fill="#161b22" style="animation-delay: 0.780s"/>
  <rect class="anim-cell cell" x="840" y="141" width="14" height="14" fill="#161b22" style="animation-delay: 0.795s"/>
  <rect class="anim-cell cell" x="857" y="141" width="14" height="14" fill="#161b22" style="animation-delay: 0.810s"/>
  <rect class="anim-cell cell" x="874" y="141" width="14" height="14" fill="#161b22" style="animation-delay: 0.825s"/>
  <rect class="anim-cell cell" x="891" y="141" width="14" height="14" fill="#26a641" style="animation-delay: 0.840s"/>
  <rect class="anim-cell cell" x="908" y="141" width="14" height="14" fill="#39d353" style="animation-delay: 0.855s"/>
  <rect class="anim-cell cell" x="24" y="158" width="14" height="14" fill="#161b22" style="animation-delay: 0.090s"/>
  <rect class="anim-cell cell" x="41" y="158" width="14" height="14" fill="#161b22" style="animation-delay: 0.105s"/>
  <rect class="anim-cell cell" x="58" y="158" width="14" height="14" fill="#161b22" style="animation-delay: 0.120s"/>
  <rect class="anim-cell cell" x="75" y="158" width="14" height="14" fill="#161b22" style="animation-delay: 0.135s"/>
  <rect class="anim-cell cell" x="92" y="158" width="14" height="14" fill="#161b22" style="animation-delay: 0.150s"/>
  <rect class="anim-cell cell" x="109" y="158" width="14" height="14" fill="#161b22" style="animation-delay: 0.165s"/>
  <rect class="anim-cell cell" x="126" y="158" width="14" height="14" fill="#161b22" style="animation-delay: 0.180s"/>
  <rect class="anim-cell cell" x="143" y="158" width="14" height="14" fill="#161b22" style="animation-delay: 0.195s"/>
  <rect class="anim-cell cell" x="160" y="158" width="14" height="14" fill="#161b22" style="animation-delay: 0.210s"/>
  <rect class="anim-cell cell" x="177" y="158" width="14" height="14" fill="#161b22" style="animation-delay: 0.225s"/>
  <rect class="anim-cell cell" x="194" y="158" width="14" height="14" fill="#161b22" style="animation-delay: 0.240s"/>
  <rect class="anim-cell cell" x="211" y="158" width="14" height="14" fill="#161b22" style="animation-delay: 0.255s"/>
  <rect class="anim-cell cell" x="228" y="158" width="14" height="14" fill="#161b22" style="animation-delay: 0.270s"/>
  <rect class="anim-cell cell" x="245" y="158" width="14" height="14" fill="#161b22" style="animation-delay: 0.285s"/>
  <rect class="anim-cell cell" x="262" y="158" width="14" height="14" fill="#161b22" style="animation-delay: 0.300s"/>
  <rect class="anim-cell cell" x="279" y="158" width="14" height="14" fill="#161b22" style="animation-delay: 0.315s"/>
  <rect class="anim-cell cell" x="296" y="158" width="14" height="14" fill="#161b22" style="animation-delay: 0.330s"/>
  <rect class="anim-cell cell" x="313" y="158" width="14" height="14" fill="#161b22" style="animation-delay: 0.345s"/>
  <rect class="anim-cell cell" x="330" y="158" width="14" height="14" fill="#161b22" style="animation-delay: 0.360s"/>
  <rect class="anim-cell cell" x="347" y="158" width="14" height="14" fill="#161b22" style="animation-delay: 0.375s"/>
  <rect class="anim-cell cell" x="364" y="158" width="14" height="14" fill="#161b22" style="animation-delay: 0.390s"/>
  <rect class="anim-cell cell" x="381" y="158" width="14" height="14" fill="#161b22" style="animation-delay: 0.405s"/>
  <rect class="anim-cell cell" x="398" y="158" width="14" height="14" fill="#161b22" style="animation-delay: 0.420s"/>
  <rect class="anim-cell cell" x="415" y="158" width="14" height="14" fill="#161b22" style="animation-delay: 0.435s"/>
  <rect class="anim-cell cell" x="432" y="158" width="14" height="14" fill="#161b22" style="animation-delay: 0.450s"/>
  <rect class="anim-cell cell" x="449" y="158" width="14" height="14" fill="#0e4429" style="animation-delay: 0.465s"/>
  <rect class="anim-cell cell" x="466" y="158" width="14" height="14" fill="#0e4429" style="animation-delay: 0.480s"/>
  <rect class="anim-cell cell" x="483" y="158" width="14" height="14" fill="#0e4429" style="animation-delay: 0.495s"/>
  <rect class="anim-cell cell" x="500" y="158" width="14" height="14" fill="#161b22" style="animation-delay: 0.510s"/>
  <rect class="anim-cell cell" x="517" y="158" width="14" height="14" fill="#161b22" style="animation-delay: 0.525s"/>
  <rect class="anim-cell cell" x="534" y="158" width="14" height="14" fill="#161b22" style="animation-delay: 0.540s"/>
  <rect class="anim-cell cell" x="551" y="158" width="14" height="14" fill="#161b22" style="animation-delay: 0.555s"/>
  <rect class="anim-cell cell" x="568" y="158" width="14" height="14" fill="#161b22" style="animation-delay: 0.570s"/>
  <rect class="anim-cell cell" x="585" y="158" width="14" height="14" fill="#161b22" style="animation-delay: 0.585s"/>
  <rect class="anim-cell cell" x="602" y="158" width="14" height="14" fill="#161b22" style="animation-delay: 0.600s"/>
  <rect class="anim-cell cell" x="619" y="158" width="14" height="14" fill="#161b22" style="animation-delay: 0.615s"/>
  <rect class="anim-cell cell" x="636" y="158" width="14" height="14" fill="#161b22" style="animation-delay: 0.630s"/>
  <rect class="anim-cell cell" x="653" y="158" width="14" height="14" fill="#161b22" style="animation-delay: 0.645s"/>
  <rect class="anim-cell cell" x="670" y="158" width="14" height="14" fill="#161b22" style="animation-delay: 0.660s"/>
  <rect class="anim-cell cell" x="687" y="158" width="14" height="14" fill="#161b22" style="animation-delay: 0.675s"/>
  <rect class="anim-cell cell" x="704" y="158" width="14" height="14" fill="#161b22" style="animation-delay: 0.690s"/>
  <rect class="anim-cell cell" x="721" y="158" width="14" height="14" fill="#161b22" style="animation-delay: 0.705s"/>
  <rect class="anim-cell cell" x="738" y="158" width="14" height="14" fill="#161b22" style="animation-delay: 0.720s"/>
  <rect class="anim-cell cell" x="755" y="158" width="14" height="14" fill="#161b22" style="animation-delay: 0.735s"/>
  <rect class="anim-cell cell" x="772" y="158" width="14" height="14" fill="#161b22" style="animation-delay: 0.750s"/>
  <rect class="anim-cell cell" x="789" y="158" width="14" height="14" fill="#161b22" style="animation-delay: 0.765s"/>
  <rect class="anim-cell cell" x="806" y="158" width="14" height="14" fill="#161b22" style="animation-delay: 0.780s"/>
  <rect class="anim-cell cell" x="823" y="158" width="14" height="14" fill="#161b22" style="animation-delay: 0.795s"/>
  <rect class="anim-cell cell" x="840" y="158" width="14" height="14" fill="#161b22" style="animation-delay: 0.810s"/>
  <rect class="anim-cell cell" x="857" y="158" width="14" height="14" fill="#161b22" style="animation-delay: 0.825s"/>
  <rect class="anim-cell cell" x="874" y="158" width="14" height="14" fill="#161b22" style="animation-delay: 0.840s"/>
  <rect class="anim-cell cell" x="891" y="158" width="14" height="14" fill="#26a641" style="animation-delay: 0.855s"/>
  <rect class="anim-cell cell" x="908" y="158" width="14" height="14" fill="#161b22" style="animation-delay: 0.870s"/>
<text x="24" y="189" fill="#8b949e" font-size="11">Less</text>
  <rect x="59" y="180" width="12" height="12" rx="3" fill="#161b22"/>
  <rect x="77" y="180" width="12" height="12" rx="3" fill="#0e4429"/>
  <rect x="95" y="180" width="12" height="12" rx="3" fill="#006d32"/>
  <rect x="113" y="180" width="12" height="12" rx="3" fill="#26a641"/>
  <rect x="131" y="180" width="12" height="12" rx="3" fill="#39d353"/>
  <rect x="149" y="180" width="12" height="12" rx="3" fill="#69f0a0"/>
<text x="173" y="189" fill="#8b949e" font-size="11">More</text>
<text x="925" y="189" fill="#8b949e" font-size="11" text-anchor="end">38 contributions in the last year</text>
</svg>