<svg xmlns="http://www.w3.org/2000/svg" width="949" height="207" viewBox="0 0 949 207">
<defs>
  <style>
    @import url("https://fonts.googleapis.com/css2?family=DM+Mono:wght@400;500&amp;family=Geist+Mono:wght@400;700&amp;display=swap");
    text {
      font-family: "Geist Mono", "DM Mono", "Fira Code", ui-monospace, SFMono-Regular, SF Mono, Menlo, Monaco, Consolas, monospace;
    }
  </style>
</defs>
<style>
  .cell { rx: 3; ry: 3; }
  @keyframes slideIn {
    from { opacity: 0; transform: translateY(-12px); }
    to   { opacity: 1; transform: translateY(0); }
  }
  .anim-cell {
    animation: slideIn 0.4s ease-out forwards;
    opacity: 0;
  }
</style>
<rect width="100%" height="100%" fill="#0d1117"/>
  <rect class="anim-cell cell" x="24" y="24" width="14" height="14" fill="#161b22" style="animation-delay: 0.000s"/>
  <rect class="anim-cell cell" x="41" y="24" width="14" height="14" fill="#161b22" style="animation-delay: 0.015s"/>
  <rect class="anim-cell cell" x="58" y="24" width="14" height="14" fill="#161b22" style="animation-delay: 0.030s"/>
  <rect class="anim-cell cell" x="75" y="24" width="14" height="14" fill="#161b22" style="animation-delay: 0.045s"/>
  <rect class="anim-cell cell" x="92" y="24" width="14" height="14" fill="#161b22" style="animation-delay: 0.060s"/>
  <rect class="anim-cell cell" x="109" y="24" width="14" height="14" fill="#161b22" style="animation-delay: 0.075s"/>
  <rect class="anim-cell cell" x="126" y="24" width="14" height="14" fill="#161b22" style="animation-delay: 0.090s"/>
  <rect class="anim-cell cell" x="143" y="24" width="14" height="14" fill="#161b22" style="animation-delay: 0.105s"/>
  <rect class="anim-cell cell" x="160" y="24" width="14" height="14" fill="#161b22" style="animation-delay: 0.120s"/>
  <rect class="anim-cell cell" x="177" y="24" width="14" height="14" fill="#161b22" style="animation-delay: 0.135s"/>
  <rect class="anim-cell cell" x="194" y="24" width="14" height="14" fill="#161b22" style="animation-delay: 0.150s"/>
  <rect class="anim-cell cell" x="211" y="24" width="14" height="14" fill="#161b22" style="animation-delay: 0.165s"/>
  <rect class="anim-cell cell" x="228" y="24" width="14" height="14" fill="#161b22" style="animation-delay: 0.180s"/>
  <rect class="anim-cell cell" x="245" y="24" width="14" height="14" fill="#161b22" style="animation-delay: 0.195s"/>
  <rect class="anim-cell cell" x="262" y="24" width="14" height="14" fill="#161b22" style="animation-delay: 0.210s"/>
  <rect class="anim-cell cell" x="279" y="24" width="14" height="14" fill="#161b22" style="animation-delay: 0.225s"/>
  <rect class="anim-cell cell" x="296" y="24" width="14" height="14" fill="#0e4429" style="animation-delay: 0.240s"/>
  <rect class="anim-cell cell" x="313" y="24" width="14" height="14" fill="#161b22" style="animation-delay: 0.255s"/>
  <rect class="anim-cell cell" x="330" y="24" width="14" height="14" fill="#161b22" style="animation-delay: 0.270s"/>
  <rect class="anim-cell cell" x="347" y="24" width="14" height="14" fill="#161b22" style="animation-delay: 0.285s"/>
  <rect class="anim-cell cell" x="364" y="24" width="14" height="14" fill="#161b22" style="animation-delay: 0.300s"/>
  <rect class="anim-cell cell" x="381" y="24" width="14" height="14" fill="#161b22" style="animation-delay: 0.315s"/>
  <rect class="anim-cell cell" x="398" y="24" width="14" height="14" fill="#161b22" style="animation-delay: 0.330s"/>
  <rect class="anim-cell cell" x="415" y="24" width="14" height="14" fill="#161b22" style="animation-delay: 0.345s"/>
  <rect class="anim-cell cell" x="432" y="24" width="14" height="14" fill="#161b22" style="animation-delay: 0.360s"/>
  <rect class="anim-cell cell" x="449" y="24" width="14" height="14" fill="#161b22" style="animation-delay: 0.375s"/>
  <rect class="anim-cell cell" x="466" y="24" width="14" height="14" fill="#0e4429" style="animation-delay: 0.390s"/>
  <rect class="anim-cell cell" x="483" y="24" width="14" height="14" fill="#161b22" style="animation-delay: 0.405s"/>
  <rect class="anim-cell cell" x="500" y="24" width="14" height="14" fill="#161b22" style="animation-delay: 0.420s"/>
  <rect class="anim-cell cell" x="517" y="24" width="14" height="14" fill="#161b22" style="animation-delay: 0.435s"/>
  <rect class="anim-cell cell" x="534" y="24" width="14" height="14" fill="#161b22" style="animation-delay: 0.450s"/>
  <rect class="anim-cell cell" x="551" y="24" width="14" height="14" fill="#161b22" style="animation-delay: 0.465s"/>
  <rect class="anim-cell cell" x="568" y="24" width="14" height="14" fill="#161b22" style="animation-delay: 0.480s"/>
  <rect class="anim-cell cell" x="585" y="24" width="14" height="14" fill="#161b22" style="animation-delay: 0.495s"/>
  <rect class="anim-cell cell" x="602" y="24" width="14" height="14" fill="#161b22" style="animation-delay: 0.510s"/>
  <rect class="anim-cell cell" x="619" y="24" width="14" height="14" fill="#161b22" style="animation-delay: 0.525s"/>
  <rect class="anim-cell cell" x="636" y="24" width="14" height="14" fill="#161b22" style="animation-delay: 0.540s"/>
  <rect class="anim-cell cell" x="653" y="24" width="14" height="14" fill="#161b22" style="animation-delay: 0.555s"/>
  <rect class="anim-cell cell" x="670" y="24" width="14" height="14" fill="#161b22" style="animation-delay: 0.570s"/>
  <rect class="anim-cell cell" x="687" y="24" width="14" height="14" fill="#161b22" style="animation-delay: 0.585s"/>
  <rect class="anim-cell cell" x="704" y="24" width="14" height="14" fill="#161b22" style="animation-delay: 0.600s"/>
  <rect class="anim-cell cell" x="721" y="24" width="14" height="14" fill="#161b22" style="animation-delay: 0.615s"/>
  <rect class="anim-cell cell" x="738" y="24" width="14" height="14" fill="#161b22" style="animation-delay: 0.630s"/>
  <rect class="anim-cell cell" x="755" y="24" width="14" height="14" fill="#161b22" style="animation-delay: 0.645s"/>
  <rect class="anim-cell cell" x="772" y="24" width="14" height="14" fill="#161b22" style="animation-delay: 0.660s"/>
  <rect class="anim-cell cell" x="789" y="24" width="14" height="14" fill="#161b22" style="animation-delay: 0.675s"/>
  <rect class="anim-cell cell" x="806" y="24" width="14" height="14" fill="#161b22" style="animation-delay: 0.690s"/>
  <rect class="anim-cell cell" x="823" y="24" width="14" height="14" fill="#161b22" style="animation-delay: 0.705s"/>
  <rect class="anim-cell cell" x="840" y="24" width="14" height="14" fill="#161b22" style="animation-delay: 0.720s"/>
  <rect class="anim-cell cell" x="857" y="24" width="14" height="14" fill="#161b22" style="animation-delay: 0.735s"/>
  <rect class="anim-cell cell" x="874" y="24" width="14" height="14" fill="#161b22" style="animation-delay: 0.750s"/>
  <rect class="anim-cell cell" x="891" y="24" width="14" height="14" fill="#006d32" style="animation-delay: 0.765s"/>
  <rect class="anim-cell cell" x="908" y="24" width="14" height="14" fill="#161b22" style="animation-delay: 0.780s"/>
  <rect class="anim-cell cell" x="24" y="41" width="14" height="14" fill="#161b22" style="animation-delay: 0.015s"/>
  <rect class="anim-cell cell" x="41" y="41" width="14" height="14" fill="#161b22" style="animation-delay: 0.030s"/>
  <rect class="anim-cell cell" x="58" y="41" width="14" height="14" fill="#161b22" style="animation-delay: 0.045s"/>
  <rect class="anim-cell cell" x="75" y="41" width="14" height="14" fill="#161b22" style="animation-delay: 0.060s"/>
  <rect class="anim-cell cell" x="92" y="41" width="14" height="14" fill="#161b22" style="animation-delay: 0.075s"/>
  <rect class="anim-cell cell" x="109" y="41" width="14" height="14" fill="#161b22" style="animation-delay: 0.090s"/>
  <rect class="anim-cell cell" x="126" y="41" width="14" height="14" fill="#161b22" style="animation-delay: 0.105s"/>
  <rect class="anim-cell cell" x="143" y="41" width="14" height="14" fill="#161b22" style="animation-delay: 0.120s"/>
  <rect class="anim-cell cell" x="160" y="41" width="14" height="14" fill="#161b22" style="animation-delay: 0.135s"/>
  <rect class="anim-cell cell" x="177" y="41" width="14" height="14" fill="#161b22" style="animation-delay: 0.150s"/>
  <rect class="anim-cell cell" x="194" y="41" width="14" height="14" fill="#161b22" style="animation-delay: 0.165s"/>
  <rect class="anim-cell cell" x="211" y="41" width="14" height="14" fill="#161b22" style="animation-delay: 0.180s"/>
  <rect class="anim-cell cell" x="228" y="41" width="14" height="14" fill="#161b22" style="animation-delay: 0.195s"/>
  <rect class="anim-cell cell" x="245" y="41" width="14" height="14" fill="#161b22" style="animation-delay: 0.210s"/>
  <rect class="anim-cell cell" x="262" y="41" width="14" height="14" fill="#161b22" style="animation-delay: 0.225s"/>
  <rect class="anim-cell cell" x="279" y="41" width="14" height="14" fill="#161b22" style="animation-delay: 0.240s"/>
  <rect class="anim-cell cell" x="296" y="41" width="14" height="14" fill="#161b22" style="animation-delay: 0.255s"/>
  <rect class="anim-cell cell" x="313" y="41" width="14" height="14" fill="#161b22" style="animation-delay: 0.270s"/>
  <rect class="anim-cell cell" x="330" y="41" width="14" height="14" fill="#006d32" style="animation-delay: 0.285s"/>
  <rect class="anim-cell cell" x="347" y="41" width="14" height="14" fill="#161b22" style="animation-delay: 0.300s"/>
  <rect class="anim-cell cell" x="364" y="41" width="14" height="14" fill="#161b22" style="animation-delay: 0.315s"/>
  <rect class="anim-cell cell" x="381" y="41" width="14" height="14" fill="#161b22" style="animation-delay: 0.330s"/>
  <rect class="anim-cell cell" x="398" y="41" width="14" height="14" fill="#161b22" style="animation-delay: 0.345s"/>
  <rect class="anim-cell cell" x="415" y="41" width="14" height="14" fill="#161b22" style="animation-delay: 0.360s"/>
  <rect class="anim-cell cell" x="432" y="41" width="14" height="14" fill="#161b22" style="animation-delay: 0.375s"/>
  <rect class="anim-cell cell" x="449" y="41" width="14" height="14" fill="#161b22" style="animation-delay: 0.390s"/>
  <rect class="anim-cell cell" x="466" y="41" width="14" height="14" fill="#161b22" style="animation-delay: 0.405s"/>
  <rect class="anim-cell cell" x="483" y="41" width="14" height="14" fill="#161b22" style="animation-delay: 0.420s"/>
  <rect class="anim-cell cell" x="500" y="41" width="14" height="14" fill="#0e4429" style="animation-delay: 0.435s"/>
  <rect class="anim-cell cell" x="517" y="41" width="14" height="14" fill="#161b22" style="animation-delay: 0.450s"/>
  <rect class="anim-cell cell" x="534" y="41" width="14" height="14" fill="#161b22" style="animation-delay: 0.465s"/>
  <rect class="anim-cell cell" x="551" y="41" width="14" height="14" fill="#0e4429" style="animation-delay: 0.480s"/>
  <rect class="anim-cell cell" x="568" y="41" width="14" height="14" fill="#161b22" style="animation-delay: 0.495s"/>
  <rect class="anim-cell cell" x="585" y="41" width="14" height="14" fill="#161b22" style="animation-delay: 0.510s"/>
  <rect class="anim-cell cell" x="602" y="41" width="14" height="14" fill="#161b22" style="animation-delay: 0.525s"/>
  <rect class="anim-cell cell" x="619" y="41" width="14" height="14" fill="#161b22" style="animation-delay: 0.540s"/>
  <rect class="anim-cell cell" x="636" y="41" width="14" height="14" fill="#161b22" style="animation-delay: 0.555s"/>
  <rect class="anim-cell cell" x="653" y="41" width="14" height="14" fill="#161b22" style="animation-delay: 0.570s"/>
  <rect class="anim-cell cell" x="670" y="41" width="14" height="14" fill="#161b22" style="animation-delay: 0.585s"/>
  <rect class="anim-cell cell" x="687" y="41" width="14" height="14" fill="#161b22" style="animation-delay: 0.600s"/>
  <rect class="anim-cell cell" x="704" y="41" width="14" height="14" fill="#161b22" style="animation-delay: 0.615s"/>
  <rect class="anim-cell cell" x="721" y="41" width="14" height="14" fill="#161b22" style="animation-delay: 0.630s"/>
  <rect class="anim-cell cell" x="738" y="41" width="14" height="14" fill="#161b22" style="animation-delay: 0.645s"/>
  <rect class="anim-cell cell" x="755" y="41" width="14" height="14" fill="#161b22" style="animation-delay: 0.660s"/>
  <rect class="anim-cell cell" x="772" y="41" width="14" height="14" fill="#161b22" style="animation-delay: 0.675s"/>
  <rect class="anim-cell cell" x="789" y="41" width="14" height="14" fill="#161b22" style="animation-delay: 0.690s"/>
  <rect class="anim-cell cell" x="806" y="41" width="14" height="14" fill="#161b22" style="animation-delay: 0.705s"/>
  <rect class="anim-cell cell" x="823" y="41" width="14" height="14" fill="#161b22" style="animation-delay: 0.720s"/>
  <rect class="anim-cell cell" x="840" y="41" width="14" height="14" fill="#161b22" style="animation-delay: 0.735s"/>
  <rect class="anim-cell cell" x="857" y="41" width="14" height="14" fill="#161b22" style="animation-delay: 0.750s"/>
  <rect class="anim-cell cell" x="874" y="41" width="14" height="14" fill="#161b22" style="animation-delay: 0.765s"/>
  <rect class="anim-cell cell" x="891" y="41" width="14" height="14" fill="#006d32" style="animation-delay: 0.780s"/>
  <rect class="anim-cell cell" x="908" y="41" width="14" height="14" fill="#0e4429" style="animation-delay: 0.795s"/>
  <rect class="anim-cell cell" x="24" y="58" width="14" height="14" fill="#161b22" style="animation-delay: 0.030s"/>
  <rect class="anim-cell cell" x="41" y="58" width="14" height="14" fill="#161b22" style="animation-delay: 0.045s"/>
  <rect class="anim-cell cell" x="58" y="58" width="14" height="14" fill="#161b22" style="animation-delay: 0.060s"/>
  <rect class="anim-cell cell" x="75" y="58" width="14" height="14" fill="#161b22" style="animation-delay: 0.075s"/>
  <rect class="anim-cell cell" x="92" y="58" width="14" height="14" fill="#161b22" style="animation-delay: 0.090s"/>
  <rect class="anim-cell cell" x="109" y="58" width="14" height="14" fill="#161b22" style="animation-delay: 0.105s"/>
  <rect class="anim-cell cell" x="126" y="58" width="14" height="14" fill="#161b22" style="animation-delay: 0.120s"/>
  <rect class="anim-cell cell" x="143" y="58" width="14" height="14" fill="#161b22" style="animation-delay: 0.135s"/>
  <rect class="anim-cell cell" x="160" y="58" width="14" height="14" fill="#161b22" style="animation-delay: 0.150s"/>
  <rect class="anim-cell cell" x="177" y="58" width="14" height="14" fill="#161b22" style="animation-delay: 0.165s"/>
  <rect class="anim-cell cell" x="194" y="58" width="14" height="14" fill="#161b22" style="animation-delay: 0.180s"/>
  <rect class="anim-cell cell" x="211" y="58" width="14" height="14" fill="#161b22" style="animation-delay: 0.195s"/>
  <rect class="anim-cell cell" x="228" y="58" width="14" height="14" fill="#161b22" style="animation-delay: 0.210s"/>
  <rect class="anim-cell cell" x="245" y="58" width="14" height="14" fill="#161b22" style="animation-delay: 0.225s"/>
  <rect class="anim-cell cell" x="262" y="58" width="14" height="14" fill="#161b22" style="animation-delay: 0.240s"/>
  <rect class="anim-cell cell" x="279" y="58" width="14" height="14" fill="#161b22" style="animation-delay: 0.255s"/>
  <rect class="anim-cell cell" x="296" y="58" width="14" height="14" fill="#161b22" style="animation-delay: 0.270s"/>
  <rect class="anim-cell cell" x="313" y="58" width="14" height="14" fill="#161b22" style="animation-delay: 0.285s"/>
  <rect class="anim-cell cell" x="330" y="58" width="14" height="14" fill="#161b22" style="animation-delay: 0.300s"/>
  <rect class="anim-cell cell" x="347" y="58" width="14" height="14" fill="#161b22" style="animation-delay: 0.315s"/>
  <rect class="anim-cell cell" x="364" y="58" width="14" height="14" fill="#161b22" style="animation-delay: 0.330s"/>
  <rect class="anim-cell cell" x="381" y="58" width="14" height="14" fill="#161b22" style="animation-delay: 0.345s"/>
  <rect class="anim-cell cell" x="398" y="58" width="14" height="14" fill="#161b22" style="animation-delay: 0.360s"/>
  <rect class="anim-cell cell" x="415" y="58" width="14" height="14" fill="#161b22" style="animation-delay: 0.375s"/>
  <rect class="anim-cell cell" x="432" y="58" width="14" height="14" fill="#161b22" style="animation-delay: 0.390s"/>
  <rect class="anim-cell cell" x="449" y="58" width="14" height="14" fill="#161b22" style="animation-delay: 0.405s"/>
  <rect class="anim-cell cell" x="466" y="58" width="14" height="14" fill="#161b22" style="animation-delay: 0.420s"/>
  <rect class="anim-cell cell" x="483" y="58" width="14" height="14" fill="#161b22" style="animation-delay: 0.435s"/>
  <rect class="anim-cell cell" x="500" y="58" width="14" height="14" fill="#161b22" style="animation-delay: 0.450s"/>
  <rect class="anim-cell cell" x="517" y="58" width="14" height="14" fill="#161b22" style="animation-delay: 0.465s"/>
  <rect class="anim-cell cell" x="534" y="58" width="14" height="14" fill="#161b22" style="animation-delay: 0.480s"/>
  <rect class="anim-cell cell" x="551" y="58" width="14" height="14" fill="#161b22" style="animation-delay: 0.495s"/>
  <rect class="anim-cell cell" x="568" y="58" width="14" height="14" fill="#161b22" style="animation-delay: 0.510s"/>
  <rect class="anim-cell cell" x="585" y="58" width="14" height="14" fill="#161b22" style="animation-delay: 0.525s"/>
  <rect class="anim-cell cell" x="602" y="58" width="14" height="14" fill="#161b22" style="animation-delay: 0.540s"/>
  <rect class="anim-cell cell" x="619" y="58" width="14" height="14" fill="#161b22" style="animation-delay: 0.555s"/>
  <rect class="anim-cell cell" x="636" y="58" width="14" height="14" fill="#161b22" style="animation-delay: 0.570s"/>
  <rect class="anim-cell cell" x="653" y="58" width="14" height="14" fill="#161b22" style="animation-delay: 0.585s"/>
  <rect class="anim-cell cell" x="670" y="58" width="14" height="14" fill="#161b22" style="animation-delay: 0.600s"/>
  <rect class="anim-cell cell" x="687" y="58" width="14" height="14" fill="#161b22" style="animation-delay: 0.615s"/>
  <rect class="anim-cell cell" x="704" y="58" width="14" height="14" fill="#161b22" style="animation-delay: 0.630s"/>
  <rect class="anim-cell cell" x="721" y="58" width="14" height="14" fill="#161b22" style="animation-delay: 0.645s"/>
  <rect class="anim-cell cell" x="738" y="58" width="14" height="14" fill="#161b22" style="animation-delay: 0.660s"/>
  <rect class="anim-cell cell" x="755" y="58" width="14" height="14" fill="#161b22" style="animation-delay: 0.675s"/>
  <rect class="anim-cell cell" x="772" y="58" width="14" height="14" fill="#161b22" style="animation-delay: 0.690s"/>
  <rect class="anim-cell cell" x="789" y="58" width="14" height="14" fill="#161b22" style="animation-delay: 0.705s"/>
  <rect class="anim-cell cell" x="806" y="58" width="14" height="14" fill="#161b22" style="animation-delay: 0.720s"/>
  <rect class="anim-cell cell" x="823" y="58" width="14" height="14" fill="#161b22" style="animation-delay: 0.735s"/>
  <rect class="anim-cell cell" x="840" y="58" width="14" height="14" fill="#161b22" style="animation-delay: 0.750s"/>
  <rect class="anim-cell cell" x="857" y="58" width="14" height="14" fill="#161b22" style="animation-delay: 0.765s"/>
  <rect class="anim-cell cell" x="874" y="58" width="14" height="14" fill="#161b22" style="animation-delay: 0.780s"/>
  <rect class="anim-cell cell" x="891" y="58" width="14" height="14" fill="#0e4429" style="animation-delay: 0.795s"/>
  <rect class="anim-cell cell" x="908" y="58" width="14" height="14" fill="#161b22" style="animation-delay: 0.810s"/>
  <rect class="anim-cell cell" x="24" y="75" width="14" height="14" fill="#161b22" style="animation-delay: 0.045s"/>
  <rect class="anim-cell cell" x="41" y="75" width="14" height="14" fill="#161b22" style="animation-delay: 0.060s"/>
  <rect class="anim-cell cell" x="58" y="75" width="14" height="14" fill="#161b22" style="animation-delay: 0.075s"/>
  <rect class="anim-cell cell" x="75" y="75" width="14" height="14" fill="#161b22" style="animation-delay: 0.090s"/>
  <rect class="anim-cell cell" x="92" y="75" width="14" height="14" fill="#161b22" style="animation-delay: 0.105s"/>
  <rect class="anim-cell cell" x="109" y="75" width="14" height="14" fill="#161b22" style="animation-delay: 0.120s"/>
  <rect class="anim-cell cell" x="126" y="75" width="14" height="14" fill="#161b22" style="animation-delay: 0.135s"/>
  <rect class="anim-cell cell" x="143" y="75" width="14" height="14" fill="#161b22" style="animation-delay: 0.150s"/>
  <rect class="anim-cell cell" x="160" y="75" width="14" height="14" fill="#161b22" style="animation-delay: 0.165s"/>
  <rect class="anim-cell cell" x="177" y="75" width="14" height="14" fill="#161b22" style="animation-delay: 0.180s"/>
  <rect class="anim-cell cell" x="194" y="75" width="14" height="14" fill="#161b22" style="animation-delay: 0.195s"/>
  <rect class="anim-cell cell" x="211" y="75" width="14" height="14" fill="#161b22" style="animation-delay: 0.210s"/>
  <rect class="anim-cell cell" x="228" y="75" width="14" height="14" fill="#161b22" style="animation-delay: 0.225s"/>
  <rect class="anim-cell cell" x="245" y="75" width="14" height="14" fill="#0e4429" style="animation-delay: 0.240s"/>
  <rect class="anim-cell cell" x="262" y="75" width="14" height="14" fill="#161b22" style="animation-delay: 0.255s"/>
  <rect class="anim-cell cell" x="279" y="75" width="14" height="14" fill="#161b22" style="animation-delay: 0.270s"/>
  <rect class="anim-cell cell" x="296" y="75" width="14" height="14" fill="#161b22" style="animation-delay: 0.285s"/>
  <rect class="anim-cell cell" x="313" y="75" width="14" height="14" fill="#161b22" style="animation-delay: 0.300s"/>
  <rect class="anim-cell cell" x="330" y="75" width="14" height="14" fill="#161b22" style="animation-delay: 0.315s"/>
  <rect class="anim-cell cell" x="347" y="75" width="14" height="14" fill="#161b22" style="animation-delay: 0.330s"/>
  <rect class="anim-cell cell" x="364" y="75" width="14" height="14" fill="#161b22" style="animation-delay: 0.345s"/>
  <rect class="anim-cell cell" x="381" y="75" width="14" height="14" fill="#161b22" style="animation-delay: 0.360s"/>
  <rect class="anim-cell cell" x="398" y="75" width="14" height="14" fill="#161b22" style="animation-delay: 0.375s"/>
  <rect class="anim-cell cell" x="415" y="75" width="14" height="14" fill="#161b22" style="animation-delay: 0.390s"/>
  <rect class="anim-cell cell" x="432" y="75" width="14" height="14" fill="#161b22" style="animation-delay: 0.405s"/>
  <rect class="anim-cell cell" x="449" y="75" width="14" height="14" fill="#161b22" style="animation-delay: 0.420s"/>
  <rect class="anim-cell cell" x="466" y="75" width="14" height="14" fill="#161b22" style="animation-delay: 0.435s"/>
  <rect class="anim-cell cell" x="483" y="75" width="14" height="14" fill="#161b22" style="animation-delay: 0.450s"/>
  <rect class="anim-cell cell" x="500" y="75" width="14" height="14" fill="#161b22" style="animation-delay: 0.465s"/>
  <rect class="anim-cell cell" x="517" y="75" width="14" height="14" fill="#161b22" style="animation-delay: 0.480s"/>
  <rect class="anim-cell cell" x="534" y="75" width="14" height="14" fill="#161b22" style="animation-delay: 0.495s"/>
  <rect class="anim-cell cell" x="551" y="75" width="14" height="14" fill="#161b22" style="animation-delay: 0.510s"/>
  <rect class="anim-cell cell" x="568" y="75" width="14" height="14" fill="#161b22" style="animation-delay: 0.525s"/>
  <rect class="anim-cell cell" x="585" y="75" width="14" height="14" fill="#161b22" style="animation-delay: 0.540s"/>
  <rect class="anim-cell cell" x="602" y="75" width="14" height="14" fill="#161b22" style="animation-delay: 0.555s"/>
  <rect class="anim-cell cell" x="619" y="75" width="14" height="14" fill="#161b22" style="animation-delay: 0.570s"/>
  <rect class="anim-cell cell" x="636" y="75" width="14" height="14" fill="#161b22" style="animation-delay: 0.585s"/>
  <rect class="anim-cell cell" x="653" y="75" width="14" height="14" fill="#161b22" style="animation-delay: 0.600s"/>
  <rect class="anim-cell cell" x="670" y="75" width="14" height="14" fill="#161b22" style="animation-delay: 0.615s"/>
  <rect class="anim-cell cell" x="687" y="75" width="14" height="14" fill="#161b22" style="animation-delay: 0.630s"/>
  <rect class="anim-cell cell" x="704" y="75" width="14" height="14" fill="#161b22" style="animation-delay: 0.645s"/>
  <rect class="anim-cell cell" x="721" y="75" width="14" height="14" fill="#161b22" style="animation-delay: 0.660s"/>
  <rect class="anim-cell cell" x="738" y="75" width="14" height="14" fill="#161b22" style="animation-delay: 0.675s"/>
  <rect class="anim-cell cell" x="755" y="75" width="14" height="14" fill="#161b22" style="animation-delay: 0.690s"/>
  <rect class="anim-cell cell" x="772" y="75" width="14" height="14" fill="#161b22" style="animation-delay: 0.705s"/>
  <rect class="anim-cell cell" x="789" y="75" width="14" height="14" fill="#161b22" style="animation-delay: 0.720s"/>
  <rect class="anim-cell cell" x="806" y="75" width="14" height="14" fill="#161b22" style="animation-delay: 0.735s"/>
  <rect class="anim-cell cell" x="823" y="75" width="14" height="14" fill="#161b22" style="animation-delay: 0.750s"/>
  <rect class="anim-cell cell" x="840" y="75" width="14" height="14" fill="#161b22" style="animation-delay: 0.765s"/>
  <rect class="anim-cell cell" x="857" y="75" width="14" height="14" fill="#161b22" style="animation-delay: 0.780s"/>
  <rect class="anim-cell cell" x="874" y="75" width="14" height="14" fill="#161b22" style="animation-delay: 0.795s"/>
  <rect class="anim-cell cell" x="891" y="75" width="14" height="14" fill="#39d353" style="animation-delay: 0.810s"/>
  <rect class="anim-cell cell" x="908" y="75" width="14" height="14" fill="#161b22" style="animation-delay: 0.825s"/>
  <rect class="anim-cell cell" x="24" y="92" width="14" height="14" fill="#161b22" style="animation-delay: 0.060s"/>
  <rect class="anim-cell cell" x="41" y="92" width="14" height="14" fill="#161b22" style="animation-delay: 0.075s"/>
  <rect class="anim-cell cell" x="58" y="92" width="14" height="14" fill="#161b22" style="animation-delay: 0.090s"/>
  <rect class="anim-cell cell" x="75" y="92" width="14" height="14" fill="#161b22" style="animation-delay: 0.105s"/>
  <rect class="anim-cell cell" x="92" y="92" width="14" height="14" fill="#161b22" style="animation-delay: 0.120s"/>
  <rect class="anim-cell cell" x="109" y="92" width="14" height="14" fill="#161b22" style="animation-delay: 0.135s"/>
  <rect class="anim-cell cell" x="126" y="92" width="14" height="14" fill="#161b22" style="animation-delay: 0.150s"/>
  <rect class="anim-cell cell" x="143" y="92" width="14" height="14" fill="#161b22" style="animation-delay: 0.165s"/>
  <rect class="anim-cell cell" x="160" y="92" width="14" height="14" fill="#161b22" style="animation-delay: 0.180s"/>
  <rect class="anim-cell cell" x="177" y="92" width="14" height="14" fill="#161b22" style="animation-delay: 0.195s"/>
  <rect class="anim-cell cell" x="194" y="92" width="14" height="14" fill="#0e4429" style="animation-delay: 0.210s"/>
  <rect class="anim-cell cell" x="211" y="92" width="14" height="14" fill="#161b22" style="animation-delay: 0.225s"/>
  <rect class="anim-cell cell" x="228" y="92" width="14" height="14" fill="#161b22" style="animation-delay: 0.240s"/>
  <rect class="anim-cell cell" x="245" y="92" width="14" height="14" fill="#161b22" style="animation-delay: 0.255s"/>
  <rect class="anim-cell cell" x="262" y="92" width="14" height="14" fill="#161b22" style="animation-delay: 0.270s"/>
  <rect class="anim-cell cell" x="279" y="92" width="14" height="14" fill="#161b22" style="animation-delay: 0.285s"/>
  <rect class="anim-cell cell" x="296" y="92" width="14" height="14" fill="#161b22" style="animation-delay: 0.300s"/>
  <rect class="anim-cell cell" x="313" y="92" width="14" height="14" fill="#161b22" style="animation-delay: 0.315s"/>
  <rect class="anim-cell cell" x="330" y="92" width="14" height="14" fill="#161b22" style="animation-delay: 0.330s"/>
  <rect class="anim-cell cell" x="347" y="92" width="14" height="14" fill="#161b22" style="animation-delay: 0.345s"/>
  <rect class="anim-cell cell" x="364" y="92" width="14" height="14" fill="#161b22" style="animation-delay: 0.360s"/>
  <rect class="anim-cell cell" x="381" y="92" width="14" height="14" fill="#161b22" style="animation-delay: 0.375s"/>
  <rect class="anim-cell cell" x="398" y="92" width="14" height="14" fill="#161b22" style="animation-delay: 0.390s"/>
  <rect class="anim-cell cell" x="415" y="92" width="14" height="14" fill="#161b22" style="animation-delay: 0.405s"/>
  <rect class="anim-cell cell" x="432" y="92" width="14" height="14" fill="#161b22" style="animation-delay: 0.420s"/>
  <rect class="anim-cell cell" x="449" y="92" width="14" height="14" fill="#0e4429" style="animation-delay: 0.435s"/>
  <rect class="anim-cell cell" x="466" y="92" width="14" height="14" fill="#0e4429" style="animation-delay: 0.450s"/>
  <rect class="anim-cell cell" x="483" y="92" width="14" height="14" fill="#161b22" style="animation-delay: 0.465s"/>
  <rect class="anim-cell cell" x="500" y="92" width="14" height="14" fill="#161b22" style="animation-delay: 0.480s"/>
  <rect class="anim-cell cell" x="517" y="92" width="14" height="14" fill="#161b22" style="animation-delay: 0.495s"/>
  <rect class="anim-cell cell" x="534" y="92" width="14" height="14" fill="#161b22" style="animation-delay: 0.510s"/>
  <rect class="anim-cell cell" x="551" y="92" width="14" height="14" fill="#161b22" style="animation-delay: 0.525s"/>
  <rect class="anim-cell cell" x="568" y="92" width="14" height="14" fill="#161b22" style="animation-delay: 0.540s"/>
  <rect class="anim-cell cell" x="585" y="92" width="14" height="14" fill="#161b22" style="animation-delay: 0.555s"/>
  <rect class="anim-cell cell" x="602" y="92" width="14" height="14" fill="#161b22" style="animation-delay: 0.570s"/>
  <rect class="anim-cell cell" x="619" y="92" width="14" height="14" fill="#161b22" style="animation-delay: 0.585s"/>
  <rect class="anim-cell cell" x="636" y="92" width="14" height="14" fill="#0e4429" style="animation-delay: 0.600s"/>
  <rect class="anim-cell cell" x="653" y="92" width="14" height="14" fill="#161b22" style="animation-delay: 0.615s"/>
  <rect class="anim-cell cell" x="670" y="92" width="14" height="14" fill="#161b22" style="animation-delay: 0.630s"/>
  <rect class="anim-cell cell" x="687" y="92" width="14" height="14" fill="#161b22" style="animation-delay: 0.645s"/>
  <rect class="anim-cell cell" x="704" y="92" width="14" height="14" fill="#161b22" style="animation-delay: 0.660s"/>
  <rect class="anim-cell cell" x="721" y="92" width="14" height="14" fill="#161b22" style="animation-delay: 0.675s"/>
  <rect class="anim-cell cell" x="738" y="92" width="14" height="14" fill="#161b22" style="animation-delay: 0.690s"/>
  <rect class="anim-cell cell" x="755" y="92" width="14" height="14" fill="#161b22" style="animation-delay: 0.705s"/>
  <rect class="anim-cell cell" x="772" y="92" width="14" height="14" fill="#161b22" style="animation-delay: 0.720s"/>
  <rect class="anim-cell cell" x="789" y="92" width="14" height="14" fill="#161b22" style="animation-delay: 0.735s"/>
  <rect class="anim-cell cell" x="806" y="92" width="14" height="14" fill="#161b22" style="animation-delay: 0.750s"/>
  <rect class="anim-cell cell" x="823" y="92" width="14" height="14" fill="#161b22" style="animation-delay: 0.765s"/>
  <rect class="anim-cell cell" x="840" y="92" width="14" height="14" fill="#161b22" style="animation-delay: 0.780s"/>
  <rect class="anim-cell cell" x="857" y="92" width="14" height="14" fill="#161b22" style="animation-delay: 0.795s"/>
  <rect class="anim-cell cell" x="874" y="92" width="14" height="14" fill="#161b22" style="animation-delay: 0.810s"/>
  <rect class="anim-cell cell" x="891" y="92" width="14" height="14" fill="#39d353" style="animation-delay: 0.825s"/>
  <rect class="anim-cell cell" x="908" y="92" width="14" height="14" fill="#0e4429" style="animation-delay: 0.840s"/>
  <rect class="anim-cell cell" x="24" y="109" width="14" height="14" fill="#161b22" style="animation-delay: 0.075s"/>
  <rect class="anim-cell cell" x="41" y="109" width="14" height="14" fill="#161b22" style="animation-delay: 0.090s"/>
  <rect class="anim-cell cell" x="58" y="109" width="14" height="14" fill="#161b22" style="animation-delay: 0.105s"/>
  <rect class="anim-cell cell" x="75" y="109" width="14" height="14" fill="#161b22" style="animation-delay: 0.120s"/>
  <rect class="anim-cell cell" x="92" y="109" width="14" height="14" fill="#161b22" style="animation-delay: 0.135s"/>
  <rect class="anim-cell cell" x="109" y="109" width="14" height="14" fill="#161b22" style="animation-delay: 0.150s"/>
  <rect class="anim-cell cell" x="126" y="109" width="14" height="14" fill="#161b22" style="animation-delay: 0.165s"/>
  <rect class="anim-cell cell" x="143" y="109" width="14" height="14" fill="#161b22" style="animation-delay: 0.180s"/>
  <rect class="anim-cell cell" x="160" y="109" width="14" height="14" fill="#161b22" style="animation-delay: 0.195s"/>
  <rect class="anim-cell cell" x="177" y="109" width="14" height="14" fill="#161b22" style="animation-delay: 0.210s"/>
  <rect class="anim-cell cell" x="194" y="109" width="14" height="14" fill="#161b22" style="animation-delay: 0.225s"/>
  <rect class="anim-cell cell" x="211" y="109" width="14" height="14" fill="#161b22" style="animation-delay: 0.240s"/>
  <rect class="anim-cell cell" x="228" y="109" width="14" height="14" fill="#161b22" style="animation-delay: 0.255s"/>
  <rect class="anim-cell cell" x="245" y="109" width="14" height="14" fill="#161b22" style="animation-delay: 0.270s"/>
  <rect class="anim-cell cell" x="262" y="109" width="14" height="14" fill="#161b22" style="animation-delay: 0.285s"/>
  <rect class="anim-cell cell" x="279" y="109" width="14" height="14" fill="#0e4429" style="animation-delay: 0.300s"/>
  <rect class="anim-cell cell" x="296" y="109" width="14" height="14" fill="#161b22" style="animation-delay: 0.315s"/>
  <rect class="anim-cell cell" x="313" y="109" width="14" height="14" fill="#161b22" style="animation-delay: 0.330s"/>
  <rect class="anim-cell cell" x="330" y="109" width="14" height="14" fill="#161b22" style="animation-delay: 0.345s"/>
  <rect class="anim-cell cell" x="347" y="109" width="14" height="14" fill="#161b22" style="animation-delay: 0.360s"/>
  <rect class="anim-cell cell" x="364" y="109" width="14" height="14" fill="#161b22" style="animation-delay: 0.375s"/>
  <rect class="anim-cell cell" x="381" y="109" width="14" height="14" fill="#161b22" style="animation-delay: 0.390s"/>
  <rect class="anim-cell cell" x="398" y="109" width="14" height="14" fill="#161b22" style="animation-delay: 0.405s"/>
  <rect class="anim-cell cell" x="415" y="109" width="14" height="14" fill="#161b22" style="animation-delay: 0.420s"/>
  <rect class="anim-cell cell" x="432" y="109" width="14" height="14" fill="#161b22" style="animation-delay: 0.435s"/>
  <rect class="anim-cell cell" x="449" y="109" width="14" height="14" fill="#161b22" style="animation-delay: 0.450s"/>
  <rect class="anim-cell cell" x="466" y="109" width="14" height="14" fill="#161b22" style="animation-delay: 0.465s"/>
  <rect class="anim-cell cell" x="483" y="109" width="14" height="14" fill="#161b22" style="animation-delay: 0.480s"/>
  <rect class="anim-cell cell" x="500" y="109" width="14" height="14" fill="#161b22" style="animation-delay: 0.495s"/>
  <rect class="anim-cell cell" x="517" y="109" width="14" height="14" fill="#161b22" style="animation-delay: 0.510s"/>
  <rect class="anim-cell cell" x="534" y="109" width="14" height="14" fill="#161b22" style="animation-delay: 0.525s"/>
  <rect class="anim-cell cell" x="551" y="109" width="14" height="14" fill="#161b22" style="animation-delay: 0.540s"/>
  <rect class="anim-cell cell" x="568" y="109" width="14" height="14" fill="#161b22" style="animation-delay: 0.555s"/>
  <rect class="anim-cell cell" x="585" y="109" width="14" height="14" fill="#161b22" style="animation-delay: 0.570s"/>
  <rect class="anim-cell cell" x="602" y="109" width="14" height="14" fill="#161b22" style="animation-delay: 0.585s"/>
  <rect class="anim-cell cell" x="619" y="109" width="14" height="14" fill="#161b22" style="animation-delay: 0.600s"/>
  <rect class="anim-cell cell" x="636" y="109" width="14" height="14" fill="#161b22" style="animation-delay: 0.615s"/>
  <rect class="anim-cell cell" x="653" y="109" width="14" height="14" fill="#161b22" style="animation-delay: 0.630s"/>
  <rect class="anim-cell cell" x="670" y="109" width="14" height="14" fill="#161b22" style="animation-delay: 0.645s"/>
  <rect class="anim-cell cell" x="687" y="109" width="14" height="14" fill="#161b22" style="animation-delay: 0.660s"/>
  <rect class="anim-cell cell" x="704" y="109" width="14" height="14" fill="#161b22" style="animation-delay: 0.675s"/>
  <rect class="anim-cell cell" x="721" y="109" width="14" height="14" fill="#161b22" style="animation-delay: 0.690s"/>
  <rect class="anim-cell cell" x="738" y="109" width="14" height="14" fill="#161b22" style="animation-delay: 0.705s"/>
  <rect class="anim-cell cell" x="755" y="109" width="14" height="14" fill="#161b22" style="animation-delay: 0.720s"/>
  <rect class="anim-cell cell" x="772" y="109" width="14" height="14" fill="#161b22" style="animation-delay: 0.735s"/>
  <rect class="anim-cell cell" x="789" y="109" width="14" height="14" fill="#161b22" style="animation-delay: 0.750s"/>
  <rect class="anim-cell cell" x="806" y="109" width="14" height="14" fill="#161b22" style="animation-delay: 0.765s"/>
  <rect class="anim-cell cell" x="823" y="109" width="14" height="14" fill="#161b22" style="animation-delay: 0.780s"/>
  <rect class="anim-cell cell" x="840" y="109" width="14" height="14" fill="#161b22" style="animation-delay: 0.795s"/>
  <rect class="anim-cell cell" x="857" y="109" width="14" height="14" fill="#161b22" style="animation-delay: 0.810s"/>
  <rect class="anim-cell cell" x="874" y="109" width="14" height="14" fill="#161b22" style="animation-delay: 0.825s"/>
  <rect class="anim-cell cell" x="891" y="109" width="14" height="14" fill="#26a641" style="animation-delay: 0.840s"/>
  <rect class="anim-cell cell" x="908" y="109" width="14" height="14" fill="#39d353" style="animation-delay: 0.855s"/>
  <rect class="anim-cell cell" x="24" y="126" width="14" height="14" fill="#161b22" style="animation-delay: 0.090s"/>
  <rect class="anim-cell cell" x="41" y="126" width="14" height="14" fill="#161b22" style="animation-delay: 0.105s"/>
  <rect class="anim-cell cell" x="58" y="126" width="14" height="14" fill="#161b22" style="animation-delay: 0.120s"/>
  <rect class="anim-cell cell" x="75" y="126" width="14" height="14" fill="#161b22" style="animation-delay: 0.135s"/>
  <rect class="anim-cell cell" x="92" y="126" width="14" height="14" fill="#161b22" style="animation-delay: 0.150s"/>
  <rect class="anim-cell cell" x="109" y="126" width="14" height="14" fill="#161b22" style="animation-delay: 0.165s"/>
  <rect class="anim-cell cell" x="126" y="126" width="14" height="14" fill="#161b22" style="animation-delay: 0.180s"/>
  <rect class="anim-cell cell" x="143" y="126" width="14" height="14" fill="#161b22" style="animation-delay: 0.195s"/>
  <rect class="anim-cell cell" x="160" y="126" width="14" height="14" fill="#161b22" style="animation-delay: 0.210s"/>
  <rect class="anim-cell cell" x="177" y="126" width="14" height="14" fill="#161b22" style="animation-delay: 0.225s"/>
  <rect class="anim-cell cell" x="194" y="126" width="14" height="14" fill="#161b22" style="animation-delay: 0.240s"/>
  <rect class="anim-cell cell" x="211" y="126" width="14" height="14" fill="#161b22" style="animation-delay: 0.255s"/>
  <rect class="anim-cell cell" x="228" y="126" width="14" height="14" fill="#161b22" style="animation-delay: 0.270s"/>
  <rect class="anim-cell cell" x="245" y="126" width="14" height="14" fill="#161b22" style="animation-delay: 0.285s"/>
  <rect class="anim-cell cell" x="262" y="126" width="14" height="14" fill="#161b22" style="animation-delay: 0.300s"/>
  <rect class="anim-cell cell" x="279" y="126" width="14" height="14" fill="#161b22" style="animation-delay: 0.315s"/>
  <rect class="anim-cell cell" x="296" y="126" width="14" height="14" fill="#161b22" style="animation-delay: 0.330s"/>
  <rect class="anim-cell cell" x="313" y="126" width="14" height="14" fill="#161b22" style="animation-delay: 0.345s"/>
  <rect class="anim-cell cell" x="330" y="126" width="14" height="14" fill="#161b22" style="animation-delay: 0.360s"/>
  <rect class="anim-cell cell" x="347" y="126" width="14" height="14" fill="#161b22" style="animation-delay: 0.375s"/>
  <rect class="anim-cell cell" x="364" y="126" width="14" height="14" fill="#161b22" style="animation-delay: 0.390s"/>
  <rect class="anim-cell cell" x="381" y="126" width="14" height="14" fill="#161b22" style="animation-delay: 0.405s"/>
  <rect class="anim-cell cell" x="398" y="126" width="14" height="14" fill="#161b22" style="animation-delay: 0.420s"/>
  <rect class="anim-cell cell" x="415" y="126" width="14" height="14" fill="#161b22" style="animation-delay: 0.435s"/>
  <rect class="anim-cell cell" x="432" y="126" width="14" height="14" fill="#161b22" style="animation-delay: 0.450s"/>
  <rect class="anim-cell cell" x="449" y="126" width="14" height="14" fill="#0e4429" style="animation-delay: 0.465s"/>
  <rect class="anim-cell cell" x="466" y="126" width="14" height="14" fill="#0e4429" style="animation-delay: 0.480s"/>
  <rect class="anim-cell cell" x="483" y="126" width="14" height="14" fill="#0e4429" style="animation-delay: 0.495s"/>
  <rect class="anim-cell cell" x="500" y="126" width="14" height="14" fill="#161b22" style="animation-delay: 0.510s"/>
  <rect class="anim-cell cell" x="517" y="126" width="14" height="14" fill="#161b22" style="animation-delay: 0.525s"/>
  <rect class="anim-cell cell" x="534" y="126" width="14" height="14" fill="#161b22" style="animation-delay: 0.540s"/>
  <rect class="anim-cell cell" x="551" y="126" width="14" height="14" fill="#161b22" style="animation-delay: 0.555s"/>
  <rect class="anim-cell cell" x="568" y="126" width="14" height="14" fill="#161b22" style="animation-delay: 0.570s"/>
  <rect class="anim-cell cell" x="585" y="126" width="14" height="14" fill="#161b22" style="animation-delay: 0.585s"/>
  <rect class="anim-cell cell" x="602" y="126" width="14" height="14" fill="#161b22" style="animation-delay: 0.600s"/>
  <rect class="anim-cell cell" x="619" y="126" width="14" height="14" fill="#161b22" style="animation-delay: 0.615s"/>
  <rect class="anim-cell cell" x="636" y="126" width="14" height="14" fill="#161b22" style="animation-delay: 0.630s"/>
  <rect class="anim-cell cell" x="653" y="126" width="14" height="14" fill="#161b22" style="animation-delay: 0.645s"/>
  <rect class="anim-cell cell" x="670" y="126" width="14" height="14" fill="#161b22" style="animation-delay: 0.660s"/>
  <rect class="anim-cell cell" x="687" y="126" width="14" height="14" fill="#161b22" style="animation-delay: 0.675s"/>
  <rect class="anim-cell cell" x="704" y="126" width="14" height="14" fill="#161b22" style="animation-delay: 0.690s"/>
  <rect class="anim-cell cell" x="721" y="126" width="14" height="14" fill="#161b22" style="animation-delay: 0.705s"/>
  <rect class="anim-cell cell" x="738" y="126" width="14" height="14" fill="#161b22" style="animation-delay: 0.720s"/>
  <rect class="anim-cell cell" x="755" y="126" width="14" height="14" fill="#161b22" style="animation-delay: 0.735s"/>
  <rect class="anim-cell cell" x="772" y="126" width="14" height="14" fill="#161b22" style="animation-delay: 0.750s"/>
  <rect class="anim-cell cell" x="789" y="126" width="14" height="14" fill="#161b22" style="animation-delay: 0.765s"/>
  <rect class="anim-cell cell" x="806" y="126" width="14" height="14" fill="#161b22" style="animation-delay: 0.780s"/>
  <rect class="anim-cell cell" x="823" y="126" width="14" height="14" fill="#161b22" style="animation-delay: 0.795s"/>
  <rect class="anim-cell cell" x="840" y="126" width="14" height="14" fill="#161b22" style="animation-delay: 0.810s"/>
  <rect class="anim-cell cell" x="857" y="126" width="14" height="14" fill="#161b22" style="animation-delay: 0.825s"/>
  <rect class="anim-cell cell" x="874" y="126" width="14" height="14" fill="#161b22" style="animation-delay: 0.840s"/>
  <rect class="anim-cell cell" x="891" y="126" width="14" height="14" fill="#26a641" style="animation-delay: 0.855s"/>
  <rect class="anim-cell cell" x="908" y="126" width="14" height="14" fill="#161b22" style="animation-delay: 0.870s"/>
<text x="24" y="157" fill="#8b949e" font-size="11">Less</text>
  <rect x="59" y="148" width="12" height="12" rx="3" fill="#161b22"/>
  <rect x="77" y="148" width="12" height="12" rx="3" fill="#0e4429"/>
  <rect x="95" y="148" width="12" height="12" rx="3" fill="#006d32"/>
  <rect x="113" y="148" width="12" height="12" rx="3" fill="#26a641"/>
  <rect x="131" y="148" width="12" height="12" rx="3" fill="#39d353"/>
  <rect x="149" y="148" width="12" height="12" rx="3" fill="#69f0a0"/>
<text x="173" y="157" fill="#8b949e" font-size="11">More</text>
<text x="925" y="157" fill="#8b949e" font-size="11" text-anchor="end">40 contributions in the last year</text>
</svg>